<?xml version="1.0" encoding="utf-8"?>
<!-- Generator: Adobe Illustrator 17.0.0, SVG Export Plug-In . SVG Version: 6.00 Build 0)  -->
<!DOCTYPE svg PUBLIC "-//W3C//DTD SVG 1.1//EN" "http://www.w3.org/Graphics/SVG/1.1/DTD/svg11.dtd">
<svg version="1.1" id="Layer_1" xmlns="http://www.w3.org/2000/svg" xmlns:xlink="http://www.w3.org/1999/xlink" x="0px" y="0px"
	 width="100px" height="100px" viewBox="0 0 100 100" enable-background="new 0 0 100 100" xml:space="preserve">
<g>
	<path fill="#8FD8F8" stroke="#FFFFFF" stroke-width="7.6728" stroke-miterlimit="10" d="M100.25,50.287c0,27.609-22.391,50-50,50
		s-50-22.391-50-50c0-27.608,22.391-49.999,50-49.999S100.25,22.679,100.25,50.287z"/>
	<path fill-rule="evenodd" clip-rule="evenodd" fill="#231F20" d="M56.071,20.629c-2.069,0.2-4.124,0.388-6.165,0.574
		c-0.294,0.027-0.601,0.027-0.894,0.067c-1.334,0.213-2.469,0.12-3.723-0.721c-2.495-1.695-5.258-1.601-7.793,0.08
		c-2.415,1.602-3.429,3.99-2.936,6.832c0.481,2.803,2.229,4.644,4.964,5.445c2.482,0.734,4.724,0.147,6.725-1.481
		c0.32-0.253,0.827-0.441,1.214-0.4c2.842,0.266,5.684,0.6,8.54,0.907c-1.241,5.724-8.967,10.261-16.373,9.688
		c-7.219-0.561-13.477-7.019-13.904-14.345c-0.44-7.727,4.978-14.585,12.557-16.093C46.53,9.554,53.776,14.504,56.071,20.629"/>
	<path fill-rule="evenodd" clip-rule="evenodd" fill="#231F20" d="M69.027,56.68h2.762c3.376,0,6.738-0.014,10.101,0.013
		c3.536,0.013,5.658,2.162,5.658,5.685v2.028c-0.747,0.32-1.161,0.213-1.121-0.694c0.027-0.694,0.027-1.401-0.026-2.095
		c-0.134-2.202-1.788-3.777-3.99-3.79c-4.337-0.014-8.674,0-13.01,0h-1.187c0.227-0.428,0.387-0.708,0.574-1.082H42.739
		c0.16,0.334,0.307,0.641,0.507,1.015H30.969v-1.055h11.503c-0.227-0.44-0.387-0.747-0.547-1.054
		c-1.895-3.563-2.322-7.312-1.401-11.235c0.147-0.601,0.4-0.827,1.068-0.854C48.784,43.269,54.135,40,57.43,33.541
		c0.307-0.574,0.667-0.56,1.134-0.481c10.689,1.855,16.2,13.478,10.862,22.911C69.32,56.145,69.24,56.319,69.027,56.68
		 M55.803,41.387c-3.95-0.013-7.073,3.016-7.086,6.859c-0.013,3.856,3.096,6.965,6.992,6.992c3.883,0.027,7.046-3.069,7.072-6.898
		C62.808,44.456,59.739,41.401,55.803,41.387"/>
	<path fill-rule="evenodd" clip-rule="evenodd" fill="#231F20" d="M43.39,57.875h24.473c-0.881,2.349-6.191,5.351-10.381,5.725
		C51.957,64.08,47.287,62.292,43.39,57.875"/>
	<path fill-rule="evenodd" clip-rule="evenodd" fill="#231F20" d="M60.653,70.577c-1.374,0.027-2.575-0.173-3.629-1.027
		c-0.961-0.775-0.974-0.775-2.402-0.641c-0.026,0.507-0.067,1.014-0.107,1.615h-1.921v-4.817c2.068,0,4.083-0.053,6.098,0.054
		c0.467,0.026,1.107,0.52,1.334,0.96c0.4,0.775,0,1.481-0.654,1.948C59.266,69.709,61.053,69.296,60.653,70.577 M54.609,67.908
		c0.961,0,1.828,0.054,2.669-0.026c0.28-0.027,0.534-0.374,0.801-0.587c-0.267-0.24-0.507-0.667-0.801-0.694
		c-0.867-0.094-1.761-0.04-2.669-0.04V67.908z"/>
	<path fill-rule="evenodd" clip-rule="evenodd" fill="#231F20" d="M29.671,68.856c0.52,0.467,1.027,0.934,1.548,1.401
		c-0.08,0.094-0.16,0.187-0.227,0.28c-1.348,0.121-2.669-0.08-3.656-1.068c-0.707-0.694-1.428-0.68-2.295-0.56
		c-0.04,0.547-0.08,1.068-0.133,1.628h-1.962v-4.764c2.108,0,4.23-0.147,6.325,0.04C30.725,65.947,30.898,67.388,29.671,68.856
		 M25.027,67.908c0.934,0,1.801,0.054,2.642-0.026c0.267-0.027,0.494-0.401,0.747-0.614c-0.24-0.226-0.467-0.64-0.721-0.667
		c-0.867-0.08-1.748-0.027-2.669-0.027V67.908z"/>
	<path fill-rule="evenodd" clip-rule="evenodd" fill="#231F20" d="M47.863,69.339c-0.12-0.147-0.227-0.293-0.347-0.44
		c-0.414-0.494-0.267-0.801,0.347-0.827c0.694-0.04,1.387-0.013,2.028-0.013c0.094,0.133,0.147,0.187,0.16,0.24
		c0.187,2.295,0.187,2.295-2.055,2.295c-0.841,0-1.668,0.026-2.509,0c-1.615-0.054-2.749-1.041-2.762-2.429
		c-0.027-1.415,1.108-2.443,2.802-2.469c0.854-0.027,1.748-0.081,2.575,0.12c0.68,0.16,1.268,0.681,1.828,1.227
		c-0.934,0.134-1.762,0.428-2.656-0.187c-0.414-0.28-1.361-0.226-1.788,0.08c-0.387,0.267-0.627,1.161-0.481,1.642
		c0.147,0.454,0.827,0.841,1.361,1.054c0.414,0.173,0.961,0.027,1.455,0.027L47.863,69.339z"/>
	<path fill-rule="evenodd" clip-rule="evenodd" fill="#231F20" d="M62.416,65.679c2.215,0,4.337-0.013,6.458,0.027
		c0.214,0,0.414,0.28,0.614,0.428c-0.214,0.133-0.441,0.373-0.654,0.387c-1.201,0.04-2.402,0.013-3.603,0.026
		c-0.694,0.014-0.694,0.027-0.707,0.934c1.014,0,2.041-0.026,3.056,0.027c0.253,0,0.494,0.253,0.734,0.401
		c-0.254,0.147-0.481,0.4-0.734,0.414c-0.988,0.053-1.988,0.026-3.042,0.026v1.321c1.521,0,3.016-0.026,4.51,0.014
		c0.267,0.013,0.534,0.28,0.801,0.427c-0.253,0.16-0.52,0.454-0.774,0.467c-2.188,0.041-4.39,0.014-6.659,0.014V65.679z"/>
	<path fill-rule="evenodd" clip-rule="evenodd" fill="#231F20" d="M36.479,70.637c-0.56-0.054-1.201-0.054-1.815-0.213
		c-1.094-0.267-1.801-1.241-1.788-2.335c0.013-1.055,0.667-2.055,1.788-2.215c1.188-0.173,2.442-0.187,3.643-0.04
		s1.962,1.187,1.962,2.295c0.013,1.108-0.827,2.108-2.042,2.348C37.68,70.583,37.107,70.583,36.479,70.637 M36.613,66.553
		c-0.908-0.026-1.695,0.708-1.695,1.575c0.013,0.841,0.72,1.521,1.628,1.534c0.88,0.013,1.561-0.574,1.601-1.401
		C38.201,67.341,37.507,66.567,36.613,66.553"/>
	<path fill-rule="evenodd" clip-rule="evenodd" fill="#231F20" d="M15.066,68.837v1.682h-2.081v-4.844h1.815
		c1.295,0,2.602-0.013,3.883,0.014c1.254,0.027,1.881,0.587,1.881,1.587c-0.013,1.015-0.654,1.548-1.881,1.561
		C17.521,68.851,16.36,68.837,15.066,68.837 M15.12,67.903c0.947,0,1.801,0.054,2.642-0.026c0.267-0.027,0.494-0.401,0.734-0.614
		c-0.24-0.226-0.467-0.627-0.721-0.654c-0.867-0.08-1.748-0.027-2.655-0.027V67.903z"/>
	<path fill-rule="evenodd" clip-rule="evenodd" fill="#231F20" d="M82.263,69.665c1.428,0,2.855,0.041,4.283-0.026
		c0.334-0.014,0.921-0.307,0.961-0.547c0.094-0.627-0.467-0.667-0.961-0.667c-0.961,0-1.922,0.027-2.896,0
		c-1.001-0.027-1.601-0.587-1.588-1.415c0.013-0.774,0.614-1.308,1.575-1.321c1.628-0.027,3.256-0.027,4.884,0.013
		c0.213,0,0.414,0.267,0.627,0.401c-0.213,0.16-0.414,0.414-0.627,0.414c-1.161,0.04-2.322,0-3.483,0.053
		c-0.294,0.014-0.56,0.307-0.841,0.481c0.267,0.173,0.534,0.481,0.814,0.494c1.001,0.067,1.988,0.014,2.989,0.041
		c1.081,0.04,1.615,0.56,1.615,1.495c-0.013,0.907-0.587,1.481-1.628,1.495c-1.735,0.04-3.456,0.04-5.191,0
		c-0.267-0.014-0.52-0.347-0.774-0.534C82.102,69.919,82.182,69.786,82.263,69.665"/>
	<path fill-rule="evenodd" clip-rule="evenodd" fill="#231F20" d="M72.418,69.665c1.428,0,2.855,0,4.27,0
		c0.467,0,1.041,0.067,1.041-0.613c-0.013-0.667-0.574-0.627-1.041-0.627c-0.974,0-1.935,0.027-2.895,0
		c-0.934-0.04-1.521-0.574-1.521-1.375c-0.013-0.787,0.574-1.348,1.534-1.361c1.615-0.027,3.256-0.013,4.884,0.013
		c0.227,0,0.441,0.24,0.654,0.374c-0.227,0.147-0.44,0.441-0.68,0.441c-1.161,0.053-2.335,0-3.496,0.053
		c-0.267,0.014-0.507,0.28-0.774,0.428c0.267,0.2,0.507,0.533,0.774,0.547c1.027,0.067,2.068,0.014,3.096,0.054
		c1.014,0.027,1.534,0.547,1.548,1.441c0.013,0.881-0.534,1.508-1.495,1.535c-1.802,0.04-3.59,0.04-5.391,0
		c-0.24-0.014-0.467-0.401-0.694-0.601C72.284,69.88,72.351,69.773,72.418,69.665"/>
	<path fill-rule="evenodd" clip-rule="evenodd" fill="#231F20" d="M26.84,57.021c0.667,0.054,1.214,0.067,1.734,0.147
		c0.187,0.026,0.347,0.2,0.507,0.32c-0.16,0.107-0.32,0.307-0.481,0.32c-1.068,0.04-2.135,0.107-3.002-0.734
		c-0.16-0.173-0.44-0.213-0.761-0.347c-0.08,0.414-0.133,0.721-0.2,1.054H23.57v-2.908c0.908,0,1.855-0.081,2.789,0.013
		C27.213,54.98,27.373,55.634,26.84,57.021"/>
	<path fill-rule="evenodd" clip-rule="evenodd" fill="#231F20" d="M61.148,27.969c-1.121,0.067-1.121,0.067-2.456-1.454
		c-0.053,0.533-0.093,0.974-0.147,1.441h-1.135v-2.868c1.348-0.614,1.695,0.653,2.482,1.334c0.04-0.52,0.053-0.894,0.08-1.361h1.174
		V27.969z"/>
	<path fill-rule="evenodd" clip-rule="evenodd" fill="#231F20" d="M20.48,57.886c-1.361,0-1.948-0.454-1.975-1.561
		c-0.013-1.121,0.614-1.601,2.041-1.601c1.361,0,1.948,0.494,1.922,1.601C22.441,57.405,21.814,57.899,20.48,57.886 M21.454,56.351
		c-0.401-0.413-0.654-0.667-0.908-0.933c-0.253,0.28-0.72,0.573-0.707,0.841c0.013,0.333,0.413,0.654,0.654,0.987
		C20.76,56.992,21.027,56.751,21.454,56.351"/>
	<path fill-rule="evenodd" clip-rule="evenodd" fill="#231F20" d="M62.132,27.993v-2.989c0.787,0,1.534-0.04,2.282,0.013
		c0.867,0.054,1.294,0.56,1.334,1.428c0.026,0.894-0.427,1.415-1.255,1.521C63.746,28.06,62.986,27.993,62.132,27.993 M63.4,25.858
		v1.201c0.08,0.067,0.16,0.134,0.24,0.2c0.28-0.24,0.774-0.467,0.801-0.748C64.534,25.832,64.027,25.725,63.4,25.858"/>
	<path fill-rule="evenodd" clip-rule="evenodd" fill="#231F20" d="M56.335,28.135c-0.761-0.239-1.508-0.653-2.282-0.68
		c-0.72-0.013-1.468,0.36-2.442,0.627c0.64-1.068,1.121-1.988,1.694-2.855c0.32-0.481,1.508-0.374,1.815,0.134
		c0.48,0.827,0.921,1.668,1.374,2.509C56.442,27.962,56.389,28.042,56.335,28.135"/>
	<path fill-rule="evenodd" clip-rule="evenodd" fill="#231F20" d="M15.256,55.985c0.16,0.027,0.32,0.041,0.467,0.081
		c0.32,0.12,0.654,0.24,0.974,0.36c-0.334,0.107-0.68,0.213-1.027,0.32c-0.08,0.014-0.187,0.027-0.347,0.041
		c-0.066,0.306-0.147,0.613-0.24,0.974h-1.108v-2.776c1.561-0.347,3.056-0.187,3.309,0.4c-0.707,0.067-1.388,0.147-2.082,0.213
		C15.215,55.732,15.242,55.852,15.256,55.985"/>
</g>
</svg>
