<?xml version="1.0" encoding="utf-8"?>
<!-- Generator: Adobe Illustrator 17.0.0, SVG Export Plug-In . SVG Version: 6.00 Build 0)  -->
<!DOCTYPE svg PUBLIC "-//W3C//DTD SVG 1.1//EN" "http://www.w3.org/Graphics/SVG/1.1/DTD/svg11.dtd">
<svg version="1.1" xmlns="http://www.w3.org/2000/svg" xmlns:xlink="http://www.w3.org/1999/xlink" x="0px" y="0px" width="100px"
	 height="100px" viewBox="0 0 100 100" enable-background="new 0 0 100 100" xml:space="preserve">
<g id="Layer_1" display="none">
	<g display="inline">
		<path fill="#8FD8F8" stroke="#FFFFFF" stroke-width="7.6728" stroke-miterlimit="10" d="M100.25,50.287c0,27.609-22.391,50-50,50
			s-50-22.391-50-50c0-27.608,22.391-49.999,50-49.999S100.25,22.679,100.25,50.287z"/>
		<path fill-rule="evenodd" clip-rule="evenodd" fill="#231F20" d="M56.071,20.629c-2.069,0.2-4.124,0.388-6.165,0.574
			c-0.294,0.027-0.601,0.027-0.894,0.067c-1.334,0.213-2.469,0.12-3.723-0.721c-2.495-1.695-5.258-1.601-7.793,0.08
			c-2.415,1.602-3.429,3.99-2.936,6.832c0.481,2.803,2.229,4.644,4.964,5.445c2.482,0.734,4.724,0.147,6.725-1.481
			c0.32-0.253,0.827-0.441,1.214-0.4c2.842,0.266,5.684,0.6,8.54,0.907c-1.241,5.724-8.967,10.261-16.373,9.688
			c-7.219-0.561-13.477-7.019-13.904-14.345c-0.44-7.727,4.978-14.585,12.557-16.093C46.53,9.554,53.776,14.504,56.071,20.629"/>
		<path fill-rule="evenodd" clip-rule="evenodd" fill="#231F20" d="M69.027,56.68h2.762c3.376,0,6.738-0.014,10.101,0.013
			c3.536,0.013,5.658,2.162,5.658,5.685v2.028c-0.747,0.32-1.161,0.213-1.121-0.694c0.027-0.694,0.027-1.401-0.026-2.095
			c-0.134-2.202-1.788-3.777-3.99-3.79c-4.337-0.014-8.674,0-13.01,0h-1.187c0.227-0.428,0.387-0.708,0.574-1.082H42.739
			c0.16,0.334,0.307,0.641,0.507,1.015H30.969v-1.055h11.503c-0.227-0.44-0.387-0.747-0.547-1.054
			c-1.895-3.563-2.322-7.312-1.401-11.235c0.147-0.601,0.4-0.827,1.068-0.854C48.784,43.269,54.135,40,57.43,33.541
			c0.307-0.574,0.667-0.56,1.134-0.481c10.689,1.855,16.2,13.478,10.862,22.911C69.32,56.145,69.24,56.319,69.027,56.68
			 M55.803,41.387c-3.95-0.013-7.073,3.016-7.086,6.859c-0.013,3.856,3.096,6.965,6.992,6.992c3.883,0.027,7.046-3.069,7.072-6.898
			C62.808,44.456,59.739,41.401,55.803,41.387"/>
		<path fill-rule="evenodd" clip-rule="evenodd" fill="#231F20" d="M43.39,57.875h24.473c-0.881,2.349-6.191,5.351-10.381,5.725
			C51.957,64.08,47.287,62.292,43.39,57.875"/>
		<path fill-rule="evenodd" clip-rule="evenodd" fill="#231F20" d="M60.653,70.577c-1.374,0.027-2.575-0.173-3.629-1.027
			c-0.961-0.775-0.974-0.775-2.402-0.641c-0.026,0.507-0.067,1.014-0.107,1.615h-1.921v-4.817c2.068,0,4.083-0.053,6.098,0.054
			c0.467,0.026,1.107,0.52,1.334,0.96c0.4,0.775,0,1.481-0.654,1.948C59.266,69.709,61.053,69.296,60.653,70.577 M54.609,67.908
			c0.961,0,1.828,0.054,2.669-0.026c0.28-0.027,0.534-0.374,0.801-0.587c-0.267-0.24-0.507-0.667-0.801-0.694
			c-0.867-0.094-1.761-0.04-2.669-0.04V67.908z"/>
		<path fill-rule="evenodd" clip-rule="evenodd" fill="#231F20" d="M29.671,68.856c0.52,0.467,1.027,0.934,1.548,1.401
			c-0.08,0.094-0.16,0.187-0.227,0.28c-1.348,0.121-2.669-0.08-3.656-1.068c-0.707-0.694-1.428-0.68-2.295-0.56
			c-0.04,0.547-0.08,1.068-0.133,1.628h-1.962v-4.764c2.108,0,4.23-0.147,6.325,0.04C30.725,65.947,30.898,67.388,29.671,68.856
			 M25.027,67.908c0.934,0,1.801,0.054,2.642-0.026c0.267-0.027,0.494-0.401,0.747-0.614c-0.24-0.226-0.467-0.64-0.721-0.667
			c-0.867-0.08-1.748-0.027-2.669-0.027V67.908z"/>
		<path fill-rule="evenodd" clip-rule="evenodd" fill="#231F20" d="M47.863,69.339c-0.12-0.147-0.227-0.293-0.347-0.44
			c-0.414-0.494-0.267-0.801,0.347-0.827c0.694-0.04,1.387-0.013,2.028-0.013c0.094,0.133,0.147,0.187,0.16,0.24
			c0.187,2.295,0.187,2.295-2.055,2.295c-0.841,0-1.668,0.026-2.509,0c-1.615-0.054-2.749-1.041-2.762-2.429
			c-0.027-1.415,1.108-2.443,2.802-2.469c0.854-0.027,1.748-0.081,2.575,0.12c0.68,0.16,1.268,0.681,1.828,1.227
			c-0.934,0.134-1.762,0.428-2.656-0.187c-0.414-0.28-1.361-0.226-1.788,0.08c-0.387,0.267-0.627,1.161-0.481,1.642
			c0.147,0.454,0.827,0.841,1.361,1.054c0.414,0.173,0.961,0.027,1.455,0.027L47.863,69.339z"/>
		<path fill-rule="evenodd" clip-rule="evenodd" fill="#231F20" d="M62.416,65.679c2.215,0,4.337-0.013,6.458,0.027
			c0.214,0,0.414,0.28,0.614,0.428c-0.214,0.133-0.441,0.373-0.654,0.387c-1.201,0.04-2.402,0.013-3.603,0.026
			c-0.694,0.014-0.694,0.027-0.707,0.934c1.014,0,2.041-0.026,3.056,0.027c0.253,0,0.494,0.253,0.734,0.401
			c-0.254,0.147-0.481,0.4-0.734,0.414c-0.988,0.053-1.988,0.026-3.042,0.026v1.321c1.521,0,3.016-0.026,4.51,0.014
			c0.267,0.013,0.534,0.28,0.801,0.427c-0.253,0.16-0.52,0.454-0.774,0.467c-2.188,0.041-4.39,0.014-6.659,0.014V65.679z"/>
		<path fill-rule="evenodd" clip-rule="evenodd" fill="#231F20" d="M36.479,70.637c-0.56-0.054-1.201-0.054-1.815-0.213
			c-1.094-0.267-1.801-1.241-1.788-2.335c0.013-1.055,0.667-2.055,1.788-2.215c1.188-0.173,2.442-0.187,3.643-0.04
			s1.962,1.187,1.962,2.295c0.013,1.108-0.827,2.108-2.042,2.348C37.68,70.583,37.107,70.583,36.479,70.637 M36.613,66.553
			c-0.908-0.026-1.695,0.708-1.695,1.575c0.013,0.841,0.72,1.521,1.628,1.534c0.88,0.013,1.561-0.574,1.601-1.401
			C38.201,67.341,37.507,66.567,36.613,66.553"/>
		<path fill-rule="evenodd" clip-rule="evenodd" fill="#231F20" d="M15.066,68.837v1.682h-2.081v-4.844h1.815
			c1.295,0,2.602-0.013,3.883,0.014c1.254,0.027,1.881,0.587,1.881,1.587c-0.013,1.015-0.654,1.548-1.881,1.561
			C17.521,68.851,16.36,68.837,15.066,68.837 M15.12,67.903c0.947,0,1.801,0.054,2.642-0.026c0.267-0.027,0.494-0.401,0.734-0.614
			c-0.24-0.226-0.467-0.627-0.721-0.654c-0.867-0.08-1.748-0.027-2.655-0.027V67.903z"/>
		<path fill-rule="evenodd" clip-rule="evenodd" fill="#231F20" d="M82.263,69.665c1.428,0,2.855,0.041,4.283-0.026
			c0.334-0.014,0.921-0.307,0.961-0.547c0.094-0.627-0.467-0.667-0.961-0.667c-0.961,0-1.922,0.027-2.896,0
			c-1.001-0.027-1.601-0.587-1.588-1.415c0.013-0.774,0.614-1.308,1.575-1.321c1.628-0.027,3.256-0.027,4.884,0.013
			c0.213,0,0.414,0.267,0.627,0.401c-0.213,0.16-0.414,0.414-0.627,0.414c-1.161,0.04-2.322,0-3.483,0.053
			c-0.294,0.014-0.56,0.307-0.841,0.481c0.267,0.173,0.534,0.481,0.814,0.494c1.001,0.067,1.988,0.014,2.989,0.041
			c1.081,0.04,1.615,0.56,1.615,1.495c-0.013,0.907-0.587,1.481-1.628,1.495c-1.735,0.04-3.456,0.04-5.191,0
			c-0.267-0.014-0.52-0.347-0.774-0.534C82.102,69.919,82.182,69.786,82.263,69.665"/>
		<path fill-rule="evenodd" clip-rule="evenodd" fill="#231F20" d="M72.418,69.665c1.428,0,2.855,0,4.27,0
			c0.467,0,1.041,0.067,1.041-0.613c-0.013-0.667-0.574-0.627-1.041-0.627c-0.974,0-1.935,0.027-2.895,0
			c-0.934-0.04-1.521-0.574-1.521-1.375c-0.013-0.787,0.574-1.348,1.534-1.361c1.615-0.027,3.256-0.013,4.884,0.013
			c0.227,0,0.441,0.24,0.654,0.374c-0.227,0.147-0.44,0.441-0.68,0.441c-1.161,0.053-2.335,0-3.496,0.053
			c-0.267,0.014-0.507,0.28-0.774,0.428c0.267,0.2,0.507,0.533,0.774,0.547c1.027,0.067,2.068,0.014,3.096,0.054
			c1.014,0.027,1.534,0.547,1.548,1.441c0.013,0.881-0.534,1.508-1.495,1.535c-1.802,0.04-3.59,0.04-5.391,0
			c-0.24-0.014-0.467-0.401-0.694-0.601C72.284,69.88,72.351,69.773,72.418,69.665"/>
		<path fill-rule="evenodd" clip-rule="evenodd" fill="#231F20" d="M26.84,57.021c0.667,0.054,1.214,0.067,1.734,0.147
			c0.187,0.026,0.347,0.2,0.507,0.32c-0.16,0.107-0.32,0.307-0.481,0.32c-1.068,0.04-2.135,0.107-3.002-0.734
			c-0.16-0.173-0.44-0.213-0.761-0.347c-0.08,0.414-0.133,0.721-0.2,1.054H23.57v-2.908c0.908,0,1.855-0.081,2.789,0.013
			C27.213,54.98,27.373,55.634,26.84,57.021"/>
		<path fill-rule="evenodd" clip-rule="evenodd" fill="#231F20" d="M61.148,27.969c-1.121,0.067-1.121,0.067-2.456-1.454
			c-0.053,0.533-0.093,0.974-0.147,1.441h-1.135v-2.868c1.348-0.614,1.695,0.653,2.482,1.334c0.04-0.52,0.053-0.894,0.08-1.361
			h1.174V27.969z"/>
		<path fill-rule="evenodd" clip-rule="evenodd" fill="#231F20" d="M20.48,57.886c-1.361,0-1.948-0.454-1.975-1.561
			c-0.013-1.121,0.614-1.601,2.041-1.601c1.361,0,1.948,0.494,1.922,1.601C22.441,57.405,21.814,57.899,20.48,57.886 M21.454,56.351
			c-0.401-0.413-0.654-0.667-0.908-0.933c-0.253,0.28-0.72,0.573-0.707,0.841c0.013,0.333,0.413,0.654,0.654,0.987
			C20.76,56.992,21.027,56.751,21.454,56.351"/>
		<path fill-rule="evenodd" clip-rule="evenodd" fill="#231F20" d="M62.132,27.993v-2.989c0.787,0,1.534-0.04,2.282,0.013
			c0.867,0.054,1.294,0.56,1.334,1.428c0.026,0.894-0.427,1.415-1.255,1.521C63.746,28.06,62.986,27.993,62.132,27.993 M63.4,25.858
			v1.201c0.08,0.067,0.16,0.134,0.24,0.2c0.28-0.24,0.774-0.467,0.801-0.748C64.534,25.832,64.027,25.725,63.4,25.858"/>
		<path fill-rule="evenodd" clip-rule="evenodd" fill="#231F20" d="M56.335,28.135c-0.761-0.239-1.508-0.653-2.282-0.68
			c-0.72-0.013-1.468,0.36-2.442,0.627c0.64-1.068,1.121-1.988,1.694-2.855c0.32-0.481,1.508-0.374,1.815,0.134
			c0.48,0.827,0.921,1.668,1.374,2.509C56.442,27.962,56.389,28.042,56.335,28.135"/>
		<path fill-rule="evenodd" clip-rule="evenodd" fill="#231F20" d="M15.256,55.985c0.16,0.027,0.32,0.041,0.467,0.081
			c0.32,0.12,0.654,0.24,0.974,0.36c-0.334,0.107-0.68,0.213-1.027,0.32c-0.08,0.014-0.187,0.027-0.347,0.041
			c-0.066,0.306-0.147,0.613-0.24,0.974h-1.108v-2.776c1.561-0.347,3.056-0.187,3.309,0.4c-0.707,0.067-1.388,0.147-2.082,0.213
			C15.215,55.732,15.242,55.852,15.256,55.985"/>
	</g>
</g>
<g id="Layer_2" display="none">
	<g display="inline">
		<path fill="#FEE600" d="M50.724,6.769C26.357,6.495,6.886,25.678,6.749,49.858c-0.15,23.768,19.246,43.251,43.189,43.375
			C73.455,93.358,93.051,74,93.25,50.557C93.463,26.515,74.342,7.031,50.724,6.769z"/>
		<path fill="#FFFFFF" d="M11.747,49.975C24.449,62.752,37.238,75.604,49.94,88.38l38.317-38.317
			C75.518,37.324,62.704,24.51,49.815,11.62C37.151,24.385,24.399,37.224,11.747,49.975"/>
		<path fill-rule="evenodd" clip-rule="evenodd" fill="#231F20" d="M11.742,49.975C24.406,37.224,37.158,24.384,49.81,11.62
			c12.889,12.889,25.703,25.703,38.443,38.443L49.935,88.38C37.233,75.604,24.456,62.752,11.742,49.975 M15.502,49.962
			c11.428,11.54,22.918,23.131,34.433,34.758C61.45,72.98,72.89,61.316,84.368,49.613C72.853,38.16,61.4,26.769,50.01,15.455
			C38.507,26.957,26.929,38.548,15.502,49.962"/>
		<path fill-rule="evenodd" clip-rule="evenodd" fill="#FFFFFF" d="M15.506,49.965c11.415-11.428,23.006-23.006,34.508-34.508
			c11.378,11.315,22.843,22.706,34.359,34.145c-11.478,11.716-22.918,23.38-34.433,35.12C38.412,73.095,26.934,61.504,15.506,49.965
			 M50.052,28.594c-11.928,0-21.494,9.542-21.482,21.42c0,11.84,9.667,21.494,21.494,21.482
			c11.777-0.013,21.369-9.617,21.407-21.432C71.509,38.162,61.954,28.594,50.052,28.594"/>
		<path fill-rule="evenodd" clip-rule="evenodd" fill="#231F20" d="M50.055,28.592c11.902,0,21.457,9.579,21.419,21.469
			c-0.037,11.827-9.629,21.419-21.407,21.444c-11.828,0.013-21.494-9.654-21.494-21.481C28.56,38.134,38.127,28.592,50.055,28.592
			 M46.183,51.185c0.762,0,1.449,0.013,2.123,0c0.862-0.024,1.224,0.35,1.212,1.236c-0.038,2.248-0.013,4.497-0.013,6.745
			c0,0.961,0.312,1.286,1.174,1.299c0.874,0,1.099-0.487,1.087-1.274c-0.025-2.498,0.025-4.984-0.025-7.482
			c-0.012-0.574-0.362-1.136-0.524-1.648c0.15-0.45,0.5-1.012,0.524-1.574c0.063-2.148,0.025-4.308,0.013-6.457
			c0-1.536-0.887-2.486-2.398-2.51c-1.437-0.025-2.873,0-4.309-0.013c-0.787,0-1.137,0.375-1.137,1.15c0,6.207,0,12.414,0,18.634
			c0,0.736,0.312,1.174,1.111,1.174c0.824,0,1.174-0.375,1.162-1.212c-0.025-2.023,0-4.058,0-6.082V51.185z M62.132,41.768
			c0.924,0,1.736-0.025,2.548,0.012c0.749,0.025,1.161-0.225,1.174-1.061c0-0.825-0.3-1.224-1.149-1.212
			c-1.249,0.013-2.498,0.013-3.747,0c-0.762,0-1.149,0.325-1.149,1.124c0.012,6.232,0,12.476,0,18.721
			c0,0.712,0.337,1.112,1.074,1.112c1.286,0,2.573-0.013,3.847,0c0.862,0,1.124-0.45,1.124-1.249
			c-0.013-0.787-0.375-1.049-1.099-1.037c-0.862,0.025-1.724,0.013-2.623,0.013v-7.131c0.912,0,1.773,0.012,2.648,0
			c0.787,0,1.087-0.425,1.074-1.199c-0.013-0.749-0.337-1.087-1.074-1.074c-0.874,0.012-1.736,0-2.648,0V41.768z M37.578,41.768
			c0.924,0,1.761-0.025,2.598,0.012c0.799,0.025,1.112-0.325,1.112-1.111c0-0.8-0.313-1.162-1.112-1.162
			c-1.249,0.013-2.485,0.013-3.734,0c-0.812-0.012-1.187,0.325-1.187,1.174c0.012,6.207,0.012,12.415,0,18.622
			c0,0.849,0.399,1.174,1.199,1.162c1.187-0.013,2.373,0,3.56,0c0.987-0.013,1.224-0.275,1.274-1.187
			c0.037-0.912-0.437-1.124-1.224-1.099c-0.824,0.038-1.661,0.013-2.485,0.013v-7.131c0.912,0,1.773,0.012,2.635,0
			c0.787,0,1.086-0.412,1.074-1.199c-0.013-0.749-0.325-1.087-1.074-1.074c-0.862,0.012-1.724,0-2.635,0V41.768z M54.751,49.986
			c0,3.022,0.012,6.058,0,9.08c-0.013,0.774,0.075,1.399,1.049,1.399c0.887,0,1.212-0.338,1.212-1.361c0-6.095-0.013-12.178,0-18.26
			c0.012-0.836-0.237-1.336-1.137-1.336c-0.874,0-1.124,0.262-1.124,1.299V49.986"/>
		<path fill-rule="evenodd" clip-rule="evenodd" fill="#FFFFFF" d="M46.179,51.188v1.986c0,2.023-0.012,4.047,0,6.082
			c0.013,0.825-0.325,1.211-1.149,1.211c-0.812,0-1.124-0.449-1.124-1.186c0-6.207,0-12.415,0-18.634
			c0-0.762,0.35-1.149,1.137-1.137c1.436,0.012,2.872-0.025,4.309,0.012c1.511,0.025,2.398,0.974,2.41,2.511
			c0,2.148,0.037,4.296-0.025,6.457c-0.025,0.562-0.362,1.111-0.524,1.574c0.175,0.511,0.512,1.074,0.524,1.636
			c0.05,2.498,0.013,4.995,0.037,7.493c0,0.787-0.224,1.274-1.099,1.262c-0.849,0-1.162-0.325-1.162-1.286
			c-0.012-2.261-0.037-4.497,0-6.745c0.013-0.887-0.337-1.274-1.211-1.249C47.628,51.201,46.941,51.188,46.179,51.188 M46.229,48.89
			c0.887,0,1.723,0.075,2.535-0.05c0.287-0.037,0.699-0.562,0.699-0.874c0.075-1.749,0.088-3.497,0-5.245
			c-0.012-0.325-0.487-0.837-0.812-0.9c-0.774-0.125-1.586-0.037-2.423-0.037V48.89z"/>
		<path fill-rule="evenodd" clip-rule="evenodd" fill="#FFFFFF" d="M62.133,41.773v7.019c0.912,0,1.786,0,2.647-0.012
			c0.737,0,1.062,0.325,1.074,1.086c0.013,0.774-0.287,1.187-1.074,1.199c-0.862,0-1.736,0-2.647,0v7.119
			c0.899,0,1.761,0.025,2.623,0c0.724-0.025,1.087,0.25,1.099,1.037c0,0.787-0.262,1.249-1.124,1.236c-1.286-0.012-2.56,0-3.834,0
			c-0.749,0-1.086-0.387-1.086-1.111c0.012-6.233,0.012-12.477,0-18.722c0-0.787,0.387-1.124,1.149-1.111
			c1.249,0.012,2.498,0.012,3.747-0.012c0.849,0,1.149,0.399,1.149,1.211c-0.012,0.837-0.425,1.099-1.174,1.061
			C63.869,41.749,63.057,41.773,62.133,41.773"/>
		<path fill-rule="evenodd" clip-rule="evenodd" fill="#FFFFFF" d="M37.572,41.773v7.019c0.912,0,1.773,0,2.647-0.012
			c0.737,0,1.049,0.325,1.062,1.086c0.012,0.774-0.287,1.187-1.074,1.199c-0.862,0.013-1.724,0-2.635,0v7.119
			c0.824,0,1.661,0.025,2.485,0c0.787-0.025,1.262,0.175,1.224,1.086c-0.05,0.912-0.275,1.175-1.274,1.187
			c-1.187,0.012-2.36-0.012-3.547,0c-0.812,0.012-1.211-0.313-1.211-1.162c0.012-6.207,0.025-12.414,0-18.621
			c0-0.849,0.375-1.174,1.187-1.174c1.249,0.024,2.498,0.012,3.747,0.012c0.787-0.012,1.099,0.362,1.099,1.149
			c0,0.787-0.3,1.15-1.112,1.111C39.332,41.749,38.495,41.773,37.572,41.773"/>
		<path fill-rule="evenodd" clip-rule="evenodd" fill="#FFFFFF" d="M54.751,49.986v-9.18c0-1.037,0.25-1.299,1.124-1.299
			c0.899,0,1.149,0.5,1.137,1.336c-0.013,6.082,0,12.165,0,18.26c0,1.024-0.325,1.361-1.212,1.361c-0.974,0-1.061-0.625-1.049-1.399
			C54.763,56.044,54.751,53.008,54.751,49.986"/>
		<path fill-rule="evenodd" clip-rule="evenodd" fill="#231F20" d="M46.229,48.89v-7.106c0.837,0,1.648-0.088,2.423,0.037
			c0.325,0.063,0.8,0.575,0.812,0.9c0.088,1.749,0.075,3.497,0,5.245c0,0.313-0.412,0.837-0.699,0.874
			C47.952,48.965,47.116,48.89,46.229,48.89"/>
		<path fill-rule="evenodd" clip-rule="evenodd" fill="#FFFFFF" d="M49.918,100C21.917,99.825-0.039,77.245,0.011,49.905
			C0.061,22.017,22.879-0.54,51.017,0.01c27.414,0.524,49.596,23.193,48.959,51.182C99.364,77.832,77.707,99.913,49.918,100
			 M49.918,93.243c23.518,0.125,43.113-19.233,43.313-42.676C93.444,26.525,74.323,7.041,50.705,6.779
			C26.338,6.505,6.867,25.688,6.73,49.868C6.58,73.635,25.976,93.119,49.918,93.243"/>
	</g>
</g>
<g id="Layer_3">
	<g>
		<path fill-rule="evenodd" clip-rule="evenodd" fill="#FFFFFF" d="M49.918,100C21.917,99.825-0.039,77.245,0.01,49.917
			C0.06,22.016,22.879-0.528,51.017,0.009c27.415,0.524,49.596,23.193,48.959,51.182C99.364,77.832,77.707,99.913,49.918,100
			 M49.918,93.243c23.518,0.125,43.114-19.234,43.313-42.676C93.444,26.524,74.323,7.041,50.705,6.779
			C26.338,6.504,6.867,25.7,6.73,49.867C6.58,73.635,25.976,93.119,49.918,93.243"/>
		<path fill="#F58220" d="M50.724,6.769C26.357,6.495,6.886,25.691,6.748,49.858C6.599,73.626,25.995,93.109,49.937,93.233
			C73.455,93.358,93.051,74,93.251,50.557C93.463,26.515,74.341,7.031,50.724,6.769z"/>
		<path fill-rule="evenodd" clip-rule="evenodd" fill="#231F20" d="M69.242,21.268c-1.361,3.834-1.474,4.446-1.199,6.482h9.417
			v9.954c1.798-0.149,3.172-1.648,5.171-1.286c-0.437,0.774-0.749,1.323-1.199,2.123c0.562-0.112,0.887-0.112,1.161-0.225
			c1.499-0.599,2.973-1.236,4.484-1.798c0.337-0.125,1.037-0.075,1.099,0.063c0.137,0.387,0.187,0.961-0.025,1.274
			c-0.612,0.961-1.399,1.823-2.086,2.735c-0.325,0.425-0.574,0.887-0.874,1.336c0.45,0.15,0.887,0.313,1.499,0.537
			c-0.075,0.237-0.125,0.624-0.312,0.912c-0.712,1.098-1.474,2.16-2.173,3.26c-0.162,0.25-0.3,0.774-0.175,0.887
			c0.225,0.213,0.649,0.3,0.986,0.287c0.55-0.012,1.087-0.2,1.649-0.262c0.425-0.05,0.899-0.125,1.299-0.012
			c0.3,0.087,0.662,0.399,0.762,0.699c0.062,0.188-0.25,0.599-0.487,0.762c-1.773,1.224-3.572,2.398-5.358,3.585
			c-0.212,0.137-0.437,0.262-0.612,0.425c-1.424,1.299-1.649,2.535,0.037,3.722c1.811,1.274,3.872,1.449,5.907,1.798
			c0.437,0.075,0.849,0.25,1.274,0.375l0.075,0.3c-0.412,0.275-0.799,0.637-1.249,0.825c-1.848,0.724-3.722,1.386-5.57,2.098
			c-0.675,0.262-1.312,0.599-2.173,1.012c0.787,0.387,1.299,0.649,2.111,1.049c-1.836,1.162-3.447,2.161-5.196,3.26v10.166h-2.498
			c0.387,0.313,0.587,0.438,0.749,0.6c0.487,0.474,0.437,0.961-0.212,1.086c-0.862,0.188-1.773,0.325-2.648,0.237
			c-1.574-0.162-3.122-0.512-4.684-0.774c-0.887-0.138-1.199,0.162-1.174,1.061c0.05,1.936-0.188,2.161-2.073,1.624
			c-1.087-0.313-2.161-0.749-3.222-1.174c-1.299-0.524-1.811-0.225-1.873,1.137c-0.013,0.3-0.15,0.587-0.275,0.999
			c-1.748-1.262-3.347-2.41-4.933-3.547c-0.562-0.387-1.124-0.787-1.736-1.112c-0.687-0.349-1.099-0.124-1.087,0.637
			c0.037,2.535-0.737,4.908-1.312,7.331c-0.312,1.299-1.036,1.836-2.21,1.811c-0.912-0.025-1.224-0.499-0.974-1.387
			c0.724-2.497,1.411-5.008,2.11-7.519c0.063-0.237-0.012-0.511-0.025-0.762c-0.3,0.025-0.662-0.063-0.887,0.088
			c-0.749,0.487-1.449,1.061-2.198,1.561c-1.087,0.736-2.173,1.461-3.285,2.148c-0.325,0.2-0.762,0.225-1.361,0.387
			c0.175-0.612,0.262-0.95,0.399-1.461c-0.399,0-0.787-0.075-1.137,0c-2.073,0.511-4.147,1.074-6.22,1.586
			c-0.325,0.088-0.675,0.013-1.212,0.013c0.35-0.712,0.612-1.224,0.862-1.749c0.387-0.8,0.15-1.299-0.762-1.274
			c-0.974,0.025-1.961,0.225-2.947,0.387c-1.711,0.3-3.41,0.699-5.121,0.937c-0.425,0.062-0.899-0.313-1.349-0.487
			c0.2-0.35,0.337-0.774,0.625-1.025c0.512-0.437,1.124-0.762,1.648-1.299h-2.923v-4.671c0-0.774,0.013-1.561,0-2.335
			c-0.012-0.974,0.287-2.148-0.162-2.835c-0.437-0.688-1.648-0.874-2.523-1.287c-0.587-0.274-1.174-0.55-1.836-0.862
			c0.275-0.386,0.512-0.724,0.774-1.098c-3.035-1.512-6.482-2.036-9.517-4.159c0.55-0.262,0.874-0.487,1.224-0.587
			c2.036-0.563,4.071-1.087,6.108-1.661c0.499-0.138,0.986-0.375,1.436-0.637c1.099-0.637,1.324-1.511,0.512-2.473
			c-0.574-0.675-1.336-1.211-2.036-1.761c-1.012-0.787-2.061-1.512-3.047-2.298c-0.362-0.287-0.712-0.662-0.899-1.061
			c-0.138-0.325-0.125-0.8,0-1.137c0.05-0.138,0.612-0.138,0.924-0.1c0.812,0.124,1.611,0.262,2.373-0.537
			c-0.437-0.675-0.887-1.361-1.349-2.048c-0.437-0.675-0.936-1.324-1.336-2.011c-0.375-0.649-0.175-1.061,0.612-1.137
			c0.3-0.024,0.587-0.149,1.061-0.287c-0.5-0.637-0.887-1.187-1.312-1.686c-0.612-0.7-1.286-1.361-1.898-2.073
			c-0.275-0.325-0.55-0.687-0.687-1.086c-0.325-0.887,0.063-1.361,0.974-1.199c0.537,0.1,1.062,0.325,1.574,0.55
			c1.486,0.611,2.96,1.249,4.621,1.961c0.05-0.849,0.1-1.499,0.138-2.248c1.698,0.063,2.698,1.573,4.271,1.886V27.8h10.454
			c-0.275-1.211-0.487-2.285-0.762-3.36c-0.212-0.836-0.499-1.648-0.699-2.497c-0.063-0.275,0.075-0.612,0.125-0.912
			c0.362,0.1,0.824,0.087,1.061,0.325c0.749,0.699,1.399,1.499,2.098,2.248c1.074,1.137,2.148,2.285,3.26,3.372
			c1.324,1.324,3.247,0.737,3.747-1.074c0.475-1.748,0.462-3.497,0.125-5.271c-0.075-0.387-0.013-0.812-0.013-1.211
			c0.1-0.025,0.2-0.063,0.287-0.1c0.212,0.225,0.425,0.462,0.649,0.687c0.35,0.338,0.662,0.762,1.074,0.987
			c0.712,0.386,1.399,0.137,1.636-0.649c0.487-1.561,0.812-3.173,1.312-4.734c0.412-1.262,0.887-2.51,1.474-3.697
			c0.187-0.387,0.837-0.799,1.224-0.762c0.35,0.037,0.824,0.624,0.949,1.062c0.637,2.223,1.149,4.496,1.786,6.732
			c0.2,0.674,0.55,1.323,0.962,1.886c0.675,0.936,1.724,1.024,2.598,0.3c0.362-0.3,0.637-0.687,0.987-0.987
			c0.2-0.162,0.499-0.225,0.737-0.337c0.087,0.262,0.275,0.55,0.225,0.787c-0.2,1.187-0.487,2.361-0.699,3.56
			c-0.1,0.487-0.112,0.986-0.125,1.486c-0.037,1.637,0.862,2.373,2.448,1.874c0.624-0.2,1.249-0.562,1.761-0.999
			c1.861-1.611,3.659-3.285,5.495-4.921C68.13,21.217,68.542,20.643,69.242,21.268 M21.807,38.89
			c0.524,1.236,1.036,2.473,1.549,3.696c0.063-0.012,0.125-0.037,0.187-0.062v-1.586c0-1.599,0-1.599-1.661-2.099
			c-0.462-0.249-0.912-0.499-1.249-0.687c-0.037,0.499,0.088,1.025-0.125,1.262s-0.812,0.362-1.137,0.25
			c-1.749-0.55-3.46-1.199-5.171-1.811c-0.45-0.162-0.874-0.362-1.312-0.55c0.088,0.412,0.287,0.637,0.487,0.874
			c0.912,1.024,1.886,1.998,2.685,3.11c0.687,0.924,0.512,1.423-0.425,2.086c-0.125,0.087-0.225,0.187-0.375,0.312
			c0.25,0.313,0.462,0.575,0.662,0.849c0.624,0.849,1.324,1.661,1.849,2.573c0.674,1.224-0.075,2.311-1.474,2.286
			c-0.425-0.013-0.837,0-1.574,0c1.336,0.961,2.485,1.686,3.497,2.573c0.912,0.787,1.923,1.624,2.398,2.673
			c0.724,1.636,0.662,2.635-0.912,3.359c-1.124,0.524-2.298,0.937-3.485,1.249c-1.224,0.349-2.498,0.524-3.747,0.774
			c-0.013,0.112-0.013,0.224-0.013,0.324c0.325,0.138,0.637,0.275,0.962,0.4c2.048,0.812,4.122,1.573,6.145,2.423
			c1.361,0.563,1.486,0.925,1.049,2.236c0.936,0.287,1.886,0.575,2.86,0.874v-5.983c-2.323,0.137-4.609,0.262-6.894,0.399
			c-0.013-0.112-0.025-0.212-0.038-0.325c0.412-0.05,0.812-0.112,1.212-0.149c1.736-0.2,3.46-0.4,5.195-0.575
			c0.562-0.05,0.6-0.387,0.6-0.837c-0.013-1.91-0.013-3.809-0.013-5.72v-2.298c-1.798,0.125-3.484,0.225-5.171,0.325
			c-0.012-0.138-0.012-0.262-0.025-0.387c0.287-0.037,0.574-0.088,0.874-0.113c1.086-0.063,2.173-0.063,3.272-0.175
			c0.362-0.037,0.987-0.337,0.999-0.55c0.1-1.224,0.05-2.461,0.05-3.697c-0.837-0.087-1.549-0.137-2.261-0.212
			c-0.712-0.075-1.424-0.15-2.136-0.262c-0.649-0.113-1.286-0.275-1.936-0.399c0.025-0.15,0.05-0.287,0.075-0.425
			c1.786,0.213,3.572,0.412,5.633,0.649c-2.973-2.397-5.77-4.645-8.568-6.881c0.087-0.1,0.162-0.2,0.237-0.3
			c2.922,2.223,5.87,4.446,8.792,6.656c0.088-0.55,0.038-0.986-0.125-1.386c-0.537-1.274-1.112-2.548-1.649-3.834
			C21.482,39.49,21.12,39.053,21.807,38.89 M24.917,76.071h51.045V29.123H24.917V76.071z M77.535,49.868v8.856
			c1.024,0.124,1.998,0.249,2.998,0.349c0.962,0.1,1.936,0.188,2.91,0.287c-0.013,0.15-0.025,0.3-0.038,0.462
			c-1.936-0.124-3.872-0.237-5.845-0.349v6.245c1.062-0.55,2.011-1.037,2.973-1.549c-0.35-0.462-0.625-0.837-0.974-1.287
			c2.136-2.36,5.42-2.272,8.143-3.759c-0.487-0.1-0.787-0.188-1.099-0.225c-1.961-0.225-3.697-0.999-5.346-2.06
			c-0.962-0.625-1.449-1.461-1.336-2.673c0.1-1.036,0.712-1.648,1.524-2.211c1.648-1.124,3.26-2.323,5.021-3.584h-1.724
			c-1.324,0.013-1.974-0.887-1.486-2.135c0.212-0.575,0.587-1.087,0.924-1.611c0.35-0.537,0.737-1.037,1.111-1.573
			c-1.374-0.737-1.486-1.199-0.612-2.449c0.699-0.999,1.436-1.948,2.148-2.947c0.112-0.137,0.175-0.338,0.325-0.637
			c-1.649,0.712-3.122,1.374-4.634,1.974c-0.487,0.188-1.124,0.362-1.549,0.188c-0.25-0.1-0.237-0.874-0.362-1.349
			c-0.012-0.05-0.062-0.088-0.15-0.2c-0.612,0.237-1.224,0.55-1.873,0.712c-1.087,0.287-1.312,0.937-0.999,1.974
			c0.549-0.475,1.086-0.937,1.623-1.399c0.075,0.05,0.162,0.112,0.237,0.162c-1.461,1.374-2.498,2.872-1.823,4.946
			c2.198-1.599,4.384-3.185,6.582-4.771c0.075,0.1,0.137,0.2,0.212,0.287c-0.225,0.188-0.45,0.374-0.675,0.55
			c-1.899,1.474-3.809,2.923-5.683,4.421c-0.325,0.262-0.475,0.749-0.699,1.124c0.087,0.063,0.162,0.125,0.237,0.188
			c1.599-0.587,3.172-1.174,4.759-1.761c0.037,0.125,0.087,0.225,0.137,0.35c-1.436,0.624-2.872,1.249-4.296,1.898
			c-0.275,0.125-0.649,0.374-0.674,0.599c-0.088,0.725-0.038,1.474-0.038,2.311h5.421c0,0.125,0.012,0.25,0.012,0.362
			C81.132,49.681,79.346,49.768,77.535,49.868 M47.235,27.712c-0.724-1.286-1.399-2.485-2.073-3.684
			c0.087-0.05,0.175-0.1,0.262-0.162c0.837,1.162,1.599,2.373,2.535,3.434c0.3,0.35,1.037,0.387,1.574,0.4
			c0.137,0,0.35-0.637,0.412-0.999c0.287-1.673-0.262-3.185-0.987-4.646c-0.15-0.287-0.187-0.612-0.287-0.912
			c0.075-0.025,0.15-0.05,0.224-0.075c0.325,0.624,0.637,1.236,0.962,1.861c0.075-0.012,0.162-0.037,0.25-0.063v-5.158
			c0.112,0,0.225,0,0.337,0c0.475,1.81-0.125,3.696,0.175,5.72c0.687-0.874,1.274-1.636,1.861-2.385
			c0.1,0.075,0.187,0.137,0.287,0.213c-0.499,0.674-0.999,1.349-1.499,2.023c-0.237,0.35-0.649,0.687-0.699,1.074
			c-0.137,1.099-0.137,2.211-0.187,3.334c1.099,0.225,2.036,0.175,2.723-0.874c0.462-0.687,1.049-1.311,1.611-1.935
			c0.325-0.375,0.699-0.712,1.049-1.062l0.175,0.175c-0.949,1.211-1.911,2.423-2.948,3.747h4.534
			c-0.737-2.011-0.587-4.022-0.362-5.995c-0.325,0.149-0.637,0.349-0.974,0.425c-1.636,0.387-2.76-0.5-3.46-1.774
			c-0.649-1.211-1.037-2.573-1.436-3.897c-0.437-1.461-0.737-2.96-1.099-4.446l-0.475-0.025c-0.362,0.999-0.787,1.973-1.061,2.985
			c-0.524,1.948-0.924,3.934-1.474,5.857c-0.412,1.436-1.399,1.798-2.76,1.161c-0.187-0.075-0.387-0.137-0.487-0.187
			c0,1.049,0.125,2.086-0.038,3.072c-0.162,0.962-0.624,1.874-0.962,2.798H47.235z M46.673,77.77
			c-0.188-0.088-0.225-0.125-0.287-0.125c-5.695-0.012-11.403-0.024-17.111,0c-1.199,0-2.248,0.412-3.048,1.486
			c0.287,0,0.475,0.012,0.649-0.012c1.974-0.275,3.934-0.55,5.908-0.849c1.836-0.3,2.897,0.699,2.46,2.41
			c0.262-0.05,0.5-0.1,0.737-0.162c1.374-0.375,2.748-0.774,4.122-1.124c1.386-0.362,2.473,0.15,2.635,1.262
			C44.038,79.706,45.312,78.769,46.673,77.77 M74.063,78.069c-0.712-0.462-18.085-0.699-19.471-0.262
			c1.249,0.912,2.46,1.811,3.684,2.711c0.787-1.249,1.561-1.599,2.947-1.224c1.337,0.375,2.648,0.837,3.984,1.249
			c0.2,0.063,0.425,0.038,0.774,0.063c-0.15-0.312-0.237-0.474-0.312-0.637c-0.362-0.837,0.212-1.886,1.111-1.948
			c0.537-0.025,1.074,0.037,1.611,0.05C70.278,78.069,72.164,78.069,74.063,78.069 M66.482,27.724
			c0.237-1.486,0.462-2.859,0.724-4.434c-1.936,1.536-3.684,2.935-5.558,4.434H66.482z M33.26,22.404
			c0.462,1.724,0.874,3.247,1.299,4.746c0.075,0.225,0.287,0.574,0.437,0.587c0.974,0.05,1.948,0.025,2.922,0.025
			c0.038-0.088,0.063-0.162,0.1-0.25C36.482,25.876,34.946,24.228,33.26,22.404 M47.922,86.887c0.787,0.263,1.211,0,1.474-0.711
			c0.899-2.473,1.049-5.071,1.312-7.644c0.025-0.225-0.05-0.45-0.075-0.675c-0.087-0.013-0.187-0.025-0.275-0.037
			C49.746,80.867,49.396,83.977,47.922,86.887"/>
		<path fill-rule="evenodd" clip-rule="evenodd" fill="#FFFFFF" d="M24.927,29.135h51.045v46.948H24.927V29.135z M25.826,75.345
			h49.358V29.983H25.826V75.345z"/>
		<path fill-rule="evenodd" clip-rule="evenodd" fill="#231F20" d="M25.826,29.984h49.358v45.362H25.826V29.984z M38.278,43.747
			v-4.734c-0.787,0.05-1.636-0.124-2.148,0.213c-0.337,0.225-0.162,1.186-0.225,1.836c0,0.088,0.025,0.225-0.025,0.262
			c-0.375,0.375-0.724,0.912-1.174,1.025c-0.3,0.075-0.924-0.362-1.111-0.712c-0.325-0.612-0.562-1.349-0.562-2.023
			c0-1.536,0.025-3.097,0.312-4.596c0.225-1.224,1.387-1.424,2.123-0.45c0.387,0.512,0.562,1.174,0.862,1.823
			c0.237-0.113,0.562-0.313,0.899-0.425c0.712-0.25,0.812-0.649,0.587-1.349c-0.412-1.262-1.349-1.886-2.51-2.073
			c-1.374-0.237-2.723-0.075-3.734,1.099c-0.837,0.974-1.074,2.161-1.211,3.36c-0.225,2.035,0,4.021,1.087,5.82
			c0.712,1.174,1.911,1.685,3.184,1.298c0.874-0.274,1.686-0.749,2.623-1.174C37.454,43.098,37.816,43.385,38.278,43.747
			 M46.734,45.271h-9.367c0.312,0.762,0.6,1.461,0.874,2.123c0.962-0.137,1.811-0.25,2.635-0.374v9.404h2.673V47.02
			c0.724,0.112,1.536,0.237,2.36,0.362C46.197,46.657,46.446,45.995,46.734,45.271 M60.934,54.75v-3.859
			c0.687,0.961,1.312,1.898,1.698,2.922c0.412,1.099,1.137,1.087,2.073,0.912v-8.18h-1.511v3.484
			c-0.687-0.849-1.212-1.711-1.724-2.598c-0.649-1.111-0.787-1.174-2.073-0.799v8.118H60.934z M54.289,38.664
			c0.075-0.025,0.15-0.037,0.225-0.063c0.6,0.899,1.224,1.786,1.786,2.71c0.375,0.624,0.949,0.599,1.461,0.45
			c0.212-0.063,0.362-0.612,0.387-0.962c0.062-0.712,0.025-1.436,0.025-2.148v-4.234h-1.611v3.31
			c-0.687-1.012-1.286-1.737-1.711-2.548c-0.487-0.95-1.174-0.912-2.086-0.712v6.107c0,1.361,0.087,1.412,1.523,1.099V38.664z
			 M34.644,64.817h1.424c0.025-1.224,0.449-2.486-0.974-3.247c0.125-0.125,0.175-0.2,0.237-0.25c0.8-0.474,1.187-1.137,1.012-2.098
			c-0.175-0.999-0.799-1.549-1.749-1.637c-1.211-0.112-2.423-0.149-3.622-0.149c-0.162,0-0.437,0.399-0.437,0.624
			c-0.038,2.023,0,4.059-0.038,6.082c-0.013,0.8,0.475,0.724,0.987,0.724c0.5,0,1.037,0.113,0.999-0.699
			c-0.05-0.737-0.012-1.474-0.012-2.386c0.562,0.15,1.211,0.138,1.324,0.375C34.169,62.956,34.357,63.855,34.644,64.817
			 M49.219,51.453c1.511-0.1,1.674,0.063,1.674,1.448c0.013,0.612,0,1.224,0,1.823h1.874c-0.225-1.349-0.425-2.597-0.637-3.834
			c-0.062-0.175,0.138-0.375,0.287-0.6c0.824-1.274,0.5-3.072-0.749-3.385c-1.374-0.337-2.835-0.325-4.284-0.474v8.305h1.836V51.453
			z M59.735,41.799c1.037,0,1.973,0.063,2.897-0.012c1.074-0.075,1.961-0.587,2.161-1.699c0.212-1.149,0.35-2.335,0.262-3.484
			c-0.075-1.049-0.637-2.011-1.848-2.123c-1.149-0.112-2.311-0.025-3.472-0.025V41.799z M41.375,41.736
			c0-0.662-0.013-1.286,0.013-1.898C41.401,39.4,41.2,38.864,42,38.864c0.674,0,0.962,0.337,1.012,0.937
			c0.05,0.462,0.037,0.936,0.013,1.399c-0.038,0.699,0.437,0.624,0.874,0.624c0.437-0.013,1.074,0.137,0.949-0.624
			c-0.138-0.912-0.387-1.811-0.6-2.711c-0.112-0.137,0.087-0.262,0.212-0.425c1.087-1.361,0.774-3.397-1.187-3.584
			c-1.224-0.112-2.46-0.025-3.685-0.025c-0.037,0.075-0.087,0.125-0.087,0.175c-0.013,1.873-0.025,3.734-0.037,5.607
			C39.465,41.961,39.465,41.961,41.375,41.736 M55.201,46.507c-0.649,0.262-1.599-0.512-1.623,0.662
			c-0.038,1.899,0,3.797,0.137,5.695c0.1,1.449,0.987,2.211,2.336,2.248c1.311,0.038,2.385-0.749,2.473-2.148
			c0.125-2.098,0.037-4.221,0.037-6.307c-1.674-0.262-1.674-0.262-1.674,1.262c0,1.561,0.013,3.122,0,4.671
			c-0.013,0.762-0.45,1.162-1.037,0.861c-0.312-0.175-0.6-0.699-0.612-1.061C55.176,50.491,55.201,48.593,55.201,46.507
			 M67.566,52.327c0.063-0.025,0.125-0.05,0.187-0.075c0.262,0.438,0.512,0.887,0.762,1.324c0.787,1.399,0.874,1.436,2.573,1.087
			c-0.787-1.412-1.561-2.811-2.36-4.247c0.812-1.249,1.611-2.498,2.436-3.772c-1.236-0.3-2.048-0.025-2.51,1.111
			c-0.213,0.524-0.637,0.974-0.962,1.461c-0.05-0.025-0.112-0.05-0.162-0.088v-2.535h-1.511v8.131h1.549V52.327z M45.435,41.648
			c0.05,0.088,0.112,0.175,0.162,0.262c0.437-0.124,1.236-0.224,1.261-0.399c0.112-1.236,0.974-0.974,1.699-0.949
			c0.375,0,0.812,0.063,1.099,0.262c0.362,0.237,0.537,0.8,0.9,0.962c0.425,0.162,0.962,0.037,1.636,0.037
			c-0.912-2.523-1.711-4.871-2.648-7.182c-0.087-0.237-0.912-0.237-1.399-0.262c-0.2,0-0.537,0.212-0.599,0.399
			C46.821,37.053,46.134,39.351,45.435,41.648 M37.828,72.161c-0.425-0.188-1.024-0.263-1.124-0.525
			c-0.35-0.924-0.999-0.711-1.648-0.674c-0.275,1.161-0.088,1.698,0.799,2.011c1.236,0.449,2.448,0.537,3.584-0.387
			c0.974-0.8,0.962-2.124-0.1-2.798c-0.574-0.363-1.199-0.637-1.773-1.012c-0.212-0.124-0.437-0.362-0.487-0.587
			c-0.025-0.124,0.275-0.474,0.437-0.474c0.312-0.025,0.862,0.063,0.899,0.212c0.275,1.037,0.962,0.7,1.611,0.637
			c0.125-0.974-0.075-1.736-0.999-2.111c-1.249-0.512-2.398-0.162-3.422,0.562c-0.849,0.6-0.899,1.899-0.1,2.598
			c0.462,0.425,1.074,0.687,1.649,0.974C37.741,70.862,38.166,71.187,37.828,72.161 M39.739,42.785
			c-0.3,0.999,0.337,0.874,0.862,0.874h23.13c0.15,0,0.337,0.05,0.462-0.012c0.2-0.113,0.362-0.3,0.55-0.462
			c-0.175-0.125-0.325-0.313-0.524-0.375c-0.2-0.075-0.425-0.025-0.649-0.025H47.932H39.739z M37.154,64.642
			c0.05,0.075,0.112,0.138,0.162,0.213h30.187c0.25-0.9-0.375-0.7-0.799-0.7c-9.505-0.012-19.022-0.012-28.539-0.012
			c-0.162,0-0.35-0.05-0.462,0.025C37.491,64.279,37.329,64.479,37.154,64.642 M69.926,73.31c0.275-0.912-0.35-0.724-0.762-0.724
			c-7.281-0.013-14.55-0.013-21.819-0.013c-1.786,0-3.56,0.013-5.345,0c-0.55,0-0.887,0.088-0.5,0.737H69.926z M49.481,58.672
			c0.637,1.286,1.274,2.61,1.973,3.897c0.137,0.262,0.537,0.537,0.812,0.524c0.262-0.013,0.587-0.325,0.762-0.587
			c0.275-0.4,0.437-0.862,0.687-1.387c0.4,0.612,0.725,1.124,1.074,1.624c0.4,0.587,0.974,0.575,1.262-0.063
			c0.599-1.349,1.149-2.723,1.724-4.071c-2.024-0.6-1.486,1.436-2.298,2.123c-0.337-0.624-0.649-1.262-1.036-1.849
			c-0.125-0.187-0.437-0.325-0.675-0.325c-0.15,0-0.375,0.238-0.462,0.425c-0.275,0.563-0.5,1.162-0.774,1.811
			C51.717,59.733,51.604,57.835,49.481,58.672 M69.951,71.811v-4.384c-1.399-0.575-2.098,0.337-2.748,1.336
			c-0.462-0.537-0.774-1.137-1.249-1.361c-0.475-0.225-1.124-0.05-1.699-0.05v4.421h1.137v-2.473
			c0.412,0.511,0.637,0.799,0.862,1.086c0.562,0.712,0.899,0.712,1.461,0.012c0.262-0.325,0.55-0.624,1.012-1.149v2.561H69.951z
			 M47.345,55.937c-0.187,0.949,0.462,0.712,0.862,0.712c7.256,0.012,14.525,0.012,21.794,0.012c0.15,0,0.337,0.05,0.462-0.025
			c0.2-0.125,0.375-0.325,0.562-0.499c-0.062-0.063-0.125-0.125-0.175-0.2H47.345z M57.549,62.931
			c0.063,0.1,0.137,0.212,0.212,0.325c0.375-0.2,0.737-0.512,1.124-0.563c0.774-0.087,1.811-0.337,2.311,0.038
			c0.674,0.512,1.199,0.349,1.936,0.349c-0.712-1.474-1.374-2.835-2.061-4.183c-0.287-0.563-1.336-0.537-1.624,0.037
			C58.798,60.258,58.174,61.595,57.549,62.931 M42.787,63.068c-0.725-1.486-1.361-2.835-2.036-4.159
			c-0.262-0.537-1.349-0.587-1.611-0.063c-0.675,1.361-1.299,2.76-1.948,4.147c0.063,0.087,0.125,0.175,0.175,0.262
			c0.399-0.188,0.787-0.462,1.199-0.512c0.762-0.125,1.811-0.437,2.236-0.075C41.45,63.231,41.975,63.106,42.787,63.068
			 M47.932,70.174c-0.125,0.125-0.262,0.25-0.387,0.375c0.2,0.362,0.312,0.887,0.612,1.049c0.837,0.45,1.786,0.612,2.66,0.088
			c0.35-0.2,0.774-0.675,0.774-1.012c0-0.399-0.387-0.849-0.712-1.149c-0.313-0.287-0.787-0.363-1.137-0.6
			c-0.162-0.112-0.188-0.412-0.275-0.624c0.25-0.037,0.5-0.137,0.737-0.1c0.138,0.025,0.212,0.337,0.35,0.399
			c0.3,0.1,0.624,0.113,0.936,0.15c0-0.275,0.075-0.6-0.037-0.825c-0.125-0.249-0.4-0.462-0.662-0.587
			c-0.912-0.437-1.786-0.137-2.548,0.362c-0.9,0.588-0.675,1.637,0.399,2.161c0.537,0.262,1.299,0.237,1.561,1.286
			c-0.487-0.137-0.849-0.187-1.161-0.337C48.657,70.637,48.307,70.399,47.932,70.174 M58.611,71.774h4.196
			c-0.45-1.549-1.799-0.412-2.535-1.05c0.013-0.237,0.025-0.562,0.05-0.924c0.312,0,0.55,0.063,0.749,0
			c0.237-0.088,0.437-0.274,0.649-0.425c-0.225-0.125-0.449-0.287-0.699-0.362c-0.212-0.075-0.475-0.05-0.749-0.075
			c0.013-0.3,0.025-0.524,0.037-0.836c0.55,0,1.049,0,1.536,0c0.837-0.013,0.837-0.013,0.762-0.737h-3.997V71.774z M64.269,63.143
			c0.562,0,0.912-0.024,1.236,0c0.55,0.05,0.774-0.225,0.674-0.712c-0.225-1.249,0.45-2.123,1.162-3.01
			c0.2-0.25,0.387-0.537,0.6-0.824c-1.324-0.375-1.511,0.949-2.286,1.336c-1.336-1.524-1.798-1.711-3.21-1.212
			C63.557,59.934,64.906,61.032,64.269,63.143 M45.372,71.786c-0.649-1.948,0.724-3.06,1.511-4.471
			c-0.462,0.075-0.874,0.212-1.199,0.474c-0.35,0.275-0.624,0.662-0.936,1.012c-0.462-0.499-0.812-1.149-1.349-1.399
			c-0.512-0.237-1.224-0.05-2.073-0.05c1.249,1.399,2.648,2.473,2.011,4.434H45.372z M56.013,71.786v-3.647
			c0.537-0.037,0.962-0.063,1.387-0.088c0.05-0.087,0.1-0.175,0.15-0.262c-0.212-0.162-0.425-0.462-0.637-0.474
			c-1.187-0.05-2.373,0-3.56-0.025c-0.6-0.013-0.675,0.262-0.5,0.774c0.462,0.024,0.912,0.05,1.436,0.087v3.635H56.013z
			 M46.833,58.559v4.584c0.874,0,1.686-0.012,2.485,0c0.624,0.013,0.749-0.274,0.562-0.836c-0.462-0.025-0.924-0.05-1.486-0.088
			v-3.66H46.833z M44.835,58.597h-1.574v4.484h1.574V58.597z"/>
		<path fill-rule="evenodd" clip-rule="evenodd" fill="#FFFFFF" d="M38.284,43.747c-0.462-0.362-0.824-0.649-1.037-0.811
			c-0.924,0.437-1.736,0.912-2.61,1.186c-1.286,0.387-2.473-0.137-3.185-1.299c-1.086-1.798-1.311-3.784-1.086-5.82
			c0.125-1.199,0.375-2.385,1.199-3.359c1.012-1.174,2.36-1.336,3.747-1.111c1.161,0.2,2.086,0.824,2.498,2.073
			c0.225,0.712,0.125,1.112-0.587,1.349c-0.337,0.125-0.649,0.312-0.887,0.437c-0.3-0.649-0.487-1.311-0.862-1.823
			c-0.737-0.974-1.899-0.774-2.136,0.45c-0.275,1.499-0.312,3.06-0.312,4.596c0,0.688,0.25,1.412,0.575,2.024
			c0.187,0.349,0.799,0.787,1.111,0.711c0.45-0.112,0.787-0.649,1.161-1.024c0.063-0.05,0.025-0.175,0.038-0.262
			c0.05-0.649-0.112-1.611,0.224-1.836c0.5-0.349,1.361-0.162,2.149-0.212V43.747z"/>
		<path fill-rule="evenodd" clip-rule="evenodd" fill="#FFFFFF" d="M46.732,45.266c-0.287,0.737-0.537,1.387-0.812,2.124
			c-0.837-0.137-1.649-0.262-2.373-0.362v9.392h-2.673v-9.392c-0.824,0.112-1.674,0.237-2.635,0.362
			c-0.275-0.662-0.562-1.361-0.874-2.124H46.732z"/>
		<path fill-rule="evenodd" clip-rule="evenodd" fill="#FFFFFF" d="M60.933,54.754h-1.536v-8.118
			c1.286-0.375,1.424-0.313,2.073,0.799c0.512,0.874,1.036,1.749,1.736,2.586v-3.484h1.499v8.18c-0.936,0.188-1.661,0.2-2.073-0.912
			c-0.387-1.012-1.012-1.948-1.698-2.91V54.754z"/>
		<path fill-rule="evenodd" clip-rule="evenodd" fill="#FFFFFF" d="M54.288,38.657v3.023c-1.437,0.313-1.524,0.25-1.524-1.098
			v-6.108c0.912-0.213,1.611-0.237,2.098,0.699c0.412,0.812,1.012,1.537,1.698,2.548v-3.31h1.611v4.234
			c0,0.724,0.038,1.449-0.025,2.161c-0.025,0.337-0.175,0.899-0.387,0.961c-0.512,0.15-1.087,0.162-1.461-0.462
			c-0.562-0.925-1.187-1.798-1.786-2.698C54.438,38.62,54.363,38.645,54.288,38.657"/>
		<path fill-rule="evenodd" clip-rule="evenodd" fill="#FFFFFF" d="M34.645,64.818c-0.287-0.962-0.475-1.861-0.849-2.66
			c-0.112-0.237-0.762-0.225-1.324-0.374c0,0.912-0.037,1.648,0,2.385c0.05,0.812-0.487,0.7-0.986,0.7
			c-0.512,0-0.999,0.075-0.987-0.725c0.037-2.023,0-4.059,0.037-6.082c0-0.225,0.287-0.624,0.425-0.624
			c1.212,0,2.423,0.037,3.622,0.15c0.962,0.087,1.586,0.637,1.761,1.636c0.175,0.962-0.212,1.624-1.012,2.098
			c-0.075,0.05-0.125,0.125-0.237,0.25c1.424,0.762,0.999,2.023,0.974,3.247H34.645z M32.509,60.834
			c0.075,0.101,0.15,0.2,0.224,0.313c0.487-0.3,1.099-0.512,1.399-0.937c0.212-0.3,0.162-1.037-0.087-1.336
			c-0.3-0.362-0.912-0.462-1.536-0.736V60.834z"/>
		<path fill-rule="evenodd" clip-rule="evenodd" fill="#FFFFFF" d="M49.212,51.458v3.285h-1.823v-8.318
			c1.436,0.149,2.897,0.137,4.272,0.487c1.261,0.312,1.586,2.111,0.762,3.372c-0.15,0.238-0.362,0.438-0.287,0.612
			c0.2,1.236,0.412,2.486,0.624,3.834h-1.861c0-0.599,0-1.211,0-1.823C50.886,51.507,50.723,51.357,49.212,51.458 M49.25,50.383
			c0.075,0.101,0.15,0.188,0.224,0.287c0.462-0.274,1.162-0.437,1.324-0.836c0.225-0.55,0.237-1.349-0.013-1.886
			c-0.15-0.35-0.937-0.412-1.536-0.637V50.383z"/>
		<path fill-rule="evenodd" clip-rule="evenodd" fill="#FFFFFF" d="M59.733,41.802v-7.344c1.161,0,2.323-0.087,3.484,0.013
			c1.199,0.125,1.761,1.086,1.836,2.136c0.087,1.149-0.05,2.335-0.262,3.472c-0.2,1.111-1.087,1.637-2.161,1.711
			C61.706,41.853,60.782,41.802,59.733,41.802 M61.781,35.532v5.333c0.787,0.162,1.224-0.187,1.286-0.861
			c0.112-1.149,0.175-2.298,0.137-3.435C63.18,35.833,62.705,35.383,61.781,35.532"/>
		<path fill-rule="evenodd" clip-rule="evenodd" fill="#FFFFFF" d="M41.38,41.725c-1.911,0.225-1.911,0.225-1.911-1.486
			c0.013-1.874,0.025-3.734,0.037-5.607c0-0.05,0.05-0.1,0.088-0.175c1.224,0,2.46-0.087,3.684,0.025
			c1.961,0.188,2.261,2.223,1.187,3.584c-0.125,0.162-0.325,0.275-0.212,0.425c0.2,0.9,0.462,1.799,0.6,2.711
			c0.112,0.762-0.512,0.611-0.949,0.611c-0.437,0.013-0.912,0.075-0.874-0.611c0.025-0.475,0.037-0.937-0.013-1.399
			c-0.05-0.6-0.337-0.95-1.024-0.95c-0.787,0.013-0.587,0.55-0.6,0.987C41.368,40.451,41.38,41.062,41.38,41.725 M41.38,35.017
			c0,0.937-0.038,1.524,0.012,2.111c0.025,0.3,0.188,0.587,0.287,0.887c0.412-0.15,1.037-0.2,1.187-0.487
			c0.25-0.463,0.399-1.212,0.187-1.624C42.829,35.504,42.105,35.38,41.38,35.017"/>
		<path fill-rule="evenodd" clip-rule="evenodd" fill="#FFFFFF" d="M55.208,46.501c0,2.099-0.038,3.985,0.025,5.883
			c0.013,0.375,0.3,0.9,0.624,1.062c0.575,0.3,1.024-0.1,1.024-0.861c0.025-1.549,0.013-3.11,0.013-4.671
			c0-1.512,0-1.512,1.661-1.262c0,2.099,0.1,4.209-0.025,6.307c-0.088,1.399-1.162,2.186-2.473,2.148
			c-1.349-0.037-2.248-0.787-2.348-2.248c-0.125-1.886-0.175-3.784-0.125-5.683C53.596,46.002,54.546,46.776,55.208,46.501"/>
		<path fill-rule="evenodd" clip-rule="evenodd" fill="#FFFFFF" d="M67.561,52.327v2.398h-1.536v-8.131h1.499v2.548
			c0.05,0.024,0.112,0.05,0.175,0.075c0.325-0.487,0.737-0.937,0.949-1.461c0.475-1.137,1.274-1.411,2.511-1.111
			c-0.812,1.274-1.624,2.522-2.423,3.784c0.787,1.424,1.561,2.823,2.36,4.234c-1.699,0.35-1.786,0.313-2.573-1.086
			c-0.262-0.438-0.512-0.887-0.762-1.324C67.686,52.278,67.623,52.303,67.561,52.327"/>
		<path fill-rule="evenodd" clip-rule="evenodd" fill="#FFFFFF" d="M45.44,41.642c0.699-2.285,1.387-4.584,2.111-6.869
			c0.05-0.188,0.4-0.399,0.6-0.387c0.487,0.013,1.299,0.013,1.399,0.262c0.924,2.298,1.736,4.646,2.648,7.169
			c-0.675,0-1.224,0.137-1.636-0.038c-0.362-0.162-0.55-0.711-0.899-0.961c-0.3-0.2-0.725-0.25-1.099-0.262
			c-0.724-0.025-1.599-0.287-1.711,0.949c-0.013,0.175-0.812,0.274-1.249,0.412C45.54,41.83,45.49,41.73,45.44,41.642 M49.25,39.569
			c-0.313-0.849-0.587-1.623-0.974-2.66c-0.313,1.049-0.55,1.823-0.8,2.66H49.25z"/>
		<path fill-rule="evenodd" clip-rule="evenodd" fill="#FFFFFF" d="M37.831,72.162c0.337-0.973-0.088-1.298-0.675-1.586
			c-0.574-0.275-1.187-0.537-1.661-0.962c-0.787-0.699-0.737-1.998,0.112-2.598c1.024-0.724,2.173-1.074,3.409-0.562
			c0.937,0.375,1.137,1.137,0.999,2.111c-0.637,0.063-1.336,0.399-1.599-0.637c-0.038-0.149-0.6-0.237-0.9-0.225
			c-0.175,0.013-0.462,0.363-0.437,0.487c0.05,0.225,0.275,0.463,0.487,0.587c0.575,0.363,1.199,0.649,1.773,1.012
			c1.062,0.674,1.074,1.998,0.088,2.798c-1.124,0.924-2.348,0.824-3.585,0.386c-0.874-0.325-1.062-0.861-0.787-2.01
			c0.637-0.038,1.299-0.25,1.648,0.674C36.794,71.899,37.394,71.975,37.831,72.162"/>
		<path fill-rule="evenodd" clip-rule="evenodd" fill="#FFFFFF" d="M39.737,42.789h8.193h15.637c0.225,0,0.462-0.05,0.662,0.013
			c0.187,0.075,0.337,0.25,0.512,0.387c-0.187,0.162-0.35,0.337-0.55,0.45c-0.125,0.075-0.3,0.024-0.462,0.024H40.598
			C40.074,43.663,39.449,43.788,39.737,42.789"/>
		<path fill-rule="evenodd" clip-rule="evenodd" fill="#FFFFFF" d="M37.151,64.642c0.175-0.162,0.337-0.362,0.549-0.474
			c0.112-0.075,0.3-0.025,0.462-0.025c9.517,0,19.034,0,28.551,0.013c0.412,0,1.037-0.2,0.8,0.687H37.326
			C37.264,64.78,37.214,64.704,37.151,64.642"/>
		<path fill-rule="evenodd" clip-rule="evenodd" fill="#FFFFFF" d="M69.924,73.304H41.498c-0.387-0.649-0.038-0.736,0.499-0.724
			c1.786,0,3.56,0,5.346,0c7.269,0,14.55,0,21.819,0C69.587,72.58,70.198,72.393,69.924,73.304"/>
		<path fill-rule="evenodd" clip-rule="evenodd" fill="#FFFFFF" d="M49.482,58.672c2.11-0.849,2.235,1.062,3.047,2.124
			c0.275-0.649,0.5-1.249,0.774-1.811c0.075-0.188,0.312-0.425,0.462-0.425c0.237,0,0.55,0.137,0.674,0.325
			c0.375,0.587,0.699,1.224,1.037,1.849c0.812-0.687,0.275-2.723,2.298-2.123c-0.574,1.349-1.124,2.722-1.724,4.071
			c-0.287,0.637-0.862,0.649-1.274,0.063c-0.337-0.5-0.662-1.012-1.061-1.624c-0.25,0.524-0.412,0.986-0.687,1.386
			c-0.175,0.262-0.487,0.575-0.762,0.587c-0.275,0.013-0.675-0.262-0.812-0.524C50.756,61.283,50.119,59.959,49.482,58.672"/>
		<path fill-rule="evenodd" clip-rule="evenodd" fill="#FFFFFF" d="M69.955,71.811h-1.224v-2.56
			c-0.462,0.524-0.749,0.824-1.012,1.149c-0.562,0.7-0.899,0.7-1.461-0.012c-0.237-0.287-0.462-0.575-0.862-1.087v2.473H64.26
			v-4.421c0.562,0,1.224-0.175,1.699,0.05s0.787,0.824,1.249,1.349c0.649-0.986,1.336-1.898,2.748-1.323V71.811z"/>
		<path fill-rule="evenodd" clip-rule="evenodd" fill="#FFFFFF" d="M47.342,55.937h23.505c0.05,0.063,0.112,0.125,0.175,0.2
			c-0.188,0.175-0.35,0.374-0.562,0.499c-0.112,0.075-0.312,0.012-0.462,0.012c-7.269,0-14.526,0-21.794,0
			C47.803,56.649,47.154,56.887,47.342,55.937"/>
		<path fill-rule="evenodd" clip-rule="evenodd" fill="#FFFFFF" d="M57.551,62.925c0.624-1.324,1.249-2.673,1.898-3.997
			c0.275-0.575,1.337-0.587,1.624-0.025c0.699,1.336,1.349,2.711,2.061,4.172c-0.737,0-1.262,0.175-1.936-0.35
			c-0.5-0.375-1.536-0.125-2.311-0.025c-0.4,0.05-0.749,0.362-1.124,0.562C57.688,63.15,57.613,63.037,57.551,62.925 M59.387,61.675
			h1.374c-0.262-0.462-0.487-0.861-0.762-1.336C59.786,60.826,59.611,61.189,59.387,61.675"/>
		<path fill-rule="evenodd" clip-rule="evenodd" fill="#FFFFFF" d="M42.796,63.075c-0.824,0.024-1.337,0.162-1.998-0.412
			c-0.412-0.35-1.474-0.037-2.236,0.075c-0.412,0.063-0.787,0.338-1.187,0.512c-0.062-0.088-0.112-0.175-0.175-0.262
			c0.637-1.374,1.261-2.772,1.936-4.147c0.262-0.524,1.349-0.462,1.623,0.075C41.422,60.239,42.058,61.576,42.796,63.075
			 M39.036,61.675h1.411c-0.25-0.474-0.462-0.887-0.774-1.474C39.423,60.777,39.261,61.151,39.036,61.675"/>
		<path fill-rule="evenodd" clip-rule="evenodd" fill="#FFFFFF" d="M47.932,70.177c0.375,0.213,0.724,0.463,1.111,0.637
			c0.325,0.137,0.674,0.2,1.161,0.337c-0.262-1.049-1.024-1.024-1.561-1.286c-1.074-0.537-1.299-1.573-0.399-2.161
			c0.762-0.499,1.636-0.799,2.548-0.362c0.263,0.125,0.537,0.338,0.662,0.587c0.125,0.225,0.037,0.55,0.037,0.825
			c-0.312-0.05-0.637-0.05-0.924-0.162c-0.162-0.05-0.225-0.375-0.362-0.387c-0.237-0.037-0.487,0.063-0.737,0.1
			c0.087,0.212,0.125,0.512,0.275,0.624c0.35,0.237,0.824,0.313,1.137,0.587c0.325,0.313,0.712,0.762,0.712,1.149
			c0,0.35-0.425,0.825-0.774,1.025c-0.874,0.512-1.823,0.362-2.66-0.088c-0.3-0.162-0.412-0.699-0.612-1.061
			C47.67,70.427,47.807,70.302,47.932,70.177"/>
		<path fill-rule="evenodd" clip-rule="evenodd" fill="#FFFFFF" d="M58.615,71.774v-4.408h3.996
			c0.075,0.724,0.075,0.724-0.762,0.737c-0.499,0-0.986,0-1.536,0c-0.013,0.312-0.025,0.537-0.037,0.836
			c0.275,0.025,0.524,0,0.749,0.075c0.25,0.075,0.462,0.237,0.699,0.362c-0.212,0.137-0.425,0.337-0.662,0.412
			c-0.187,0.075-0.425,0.013-0.737,0.013c-0.025,0.362-0.038,0.687-0.05,0.924c0.737,0.624,2.073-0.499,2.535,1.049H58.615z"/>
		<path fill-rule="evenodd" clip-rule="evenodd" fill="#FFFFFF" d="M64.268,63.143c0.637-2.11-0.712-3.209-1.824-4.421
			c1.411-0.487,1.874-0.313,3.21,1.211c0.774-0.387,0.962-1.711,2.285-1.336c-0.212,0.287-0.399,0.574-0.6,0.824
			c-0.712,0.874-1.386,1.761-1.149,3.01c0.087,0.487-0.138,0.762-0.687,0.711C65.179,63.119,64.842,63.143,64.268,63.143"/>
		<path fill-rule="evenodd" clip-rule="evenodd" fill="#FFFFFF" d="M45.372,71.787h-2.036c0.637-1.961-0.762-3.035-1.998-4.434
			c0.837,0,1.549-0.188,2.061,0.05c0.537,0.249,0.887,0.899,1.336,1.399c0.325-0.35,0.587-0.737,0.949-1.012
			c0.325-0.262,0.737-0.4,1.199-0.487C46.096,68.728,44.723,69.84,45.372,71.787"/>
		<path fill-rule="evenodd" clip-rule="evenodd" fill="#FFFFFF" d="M56.008,71.79h-1.724v-3.634
			c-0.512-0.037-0.962-0.063-1.424-0.088c-0.175-0.512-0.1-0.787,0.5-0.774c1.187,0.013,2.36-0.025,3.547,0.025
			c0.212,0.012,0.425,0.313,0.637,0.475c-0.05,0.087-0.1,0.175-0.15,0.262c-0.425,0.024-0.849,0.05-1.386,0.087V71.79z"/>
		<path fill-rule="evenodd" clip-rule="evenodd" fill="#FFFFFF" d="M46.832,58.553h1.561v3.66c0.574,0.037,1.024,0.063,1.486,0.1
			c0.187,0.55,0.063,0.849-0.562,0.837c-0.799-0.025-1.611-0.013-2.485-0.013V58.553z"/>
		<rect x="43.261" y="58.597" fill-rule="evenodd" clip-rule="evenodd" fill="#FFFFFF" width="1.574" height="4.484"/>
		<path fill-rule="evenodd" clip-rule="evenodd" fill="#231F20" d="M32.509,60.834v-2.697c0.624,0.274,1.236,0.374,1.536,0.736
			c0.25,0.3,0.3,1.037,0.087,1.336c-0.3,0.425-0.912,0.637-1.399,0.937C32.659,61.034,32.584,60.935,32.509,60.834"/>
		<path fill-rule="evenodd" clip-rule="evenodd" fill="#231F20" d="M49.25,50.383v-3.072c0.599,0.225,1.386,0.287,1.536,0.637
			c0.25,0.537,0.237,1.336,0.013,1.886c-0.162,0.399-0.862,0.562-1.324,0.836C49.4,50.57,49.325,50.483,49.25,50.383"/>
		<path fill-rule="evenodd" clip-rule="evenodd" fill="#231F20" d="M61.781,35.532c0.924-0.149,1.399,0.3,1.424,1.037
			c0.037,1.137-0.025,2.286-0.137,3.435c-0.063,0.675-0.5,1.024-1.286,0.861V35.532z"/>
		<path fill-rule="evenodd" clip-rule="evenodd" fill="#231F20" d="M41.38,35.017c0.724,0.363,1.449,0.487,1.673,0.887
			c0.212,0.412,0.063,1.161-0.187,1.624c-0.15,0.287-0.774,0.337-1.187,0.487c-0.1-0.3-0.262-0.587-0.287-0.887
			C41.343,36.541,41.38,35.954,41.38,35.017"/>
		<path fill-rule="evenodd" clip-rule="evenodd" fill="#231F20" d="M49.25,39.569h-1.774c0.25-0.836,0.487-1.611,0.8-2.66
			C48.663,37.946,48.937,38.72,49.25,39.569"/>
		<path fill-rule="evenodd" clip-rule="evenodd" fill="#231F20" d="M59.387,61.675c0.224-0.486,0.399-0.849,0.612-1.336
			c0.275,0.475,0.5,0.874,0.762,1.336H59.387z"/>
		<path fill-rule="evenodd" clip-rule="evenodd" fill="#231F20" d="M39.036,61.675c0.224-0.524,0.387-0.899,0.637-1.474
			c0.312,0.587,0.524,0.999,0.774,1.474H39.036z"/>
	</g>
</g>
</svg>
