<?xml version="1.0" encoding="utf-8"?>
<!-- Generator: Adobe Illustrator 16.0.0, SVG Export Plug-In . SVG Version: 6.00 Build 0)  -->
<!DOCTYPE svg PUBLIC "-//W3C//DTD SVG 1.1//EN" "http://www.w3.org/Graphics/SVG/1.1/DTD/svg11.dtd">
<svg version="1.1" xmlns="http://www.w3.org/2000/svg" xmlns:xlink="http://www.w3.org/1999/xlink" x="0px" y="0px" width="100px"
	 height="100px" viewBox="0 0 100 100" enable-background="new 0 0 100 100" xml:space="preserve">
<g id="Capa_1" display="none">
	<g display="inline">
		<path fill-rule="evenodd" clip-rule="evenodd" fill="#05509E" d="M50,6.811c23.848,0,43.183,19.348,43.183,43.183
			c0,23.859-19.335,43.2-43.183,43.2c-23.854,0-43.183-19.341-43.183-43.2C6.817,26.159,26.146,6.811,50,6.811"/>
		<g>
			<path fill-rule="evenodd" clip-rule="evenodd" fill="#FFFFFF" d="M49.976,0c27.622-0.012,50.024,22.391,50,50
				c-0.012,27.646-22.366,50-50,50C22.391,100-0.091,77.487,0.025,49.951C0.135,22.293,22.415,0.012,49.976,0 M8.939,55.365h82.347
				c1.848-10.573-1.463-27.469-16.226-38.505C60.604,6.043,40.835,5.781,26.171,16.171C10.848,27.024,7.226,44.055,8.939,55.365
				 M9.714,59.769c0.049,0.28,0.073,0.451,0.122,0.634c2.263,9.012,7.098,16.354,14.25,22.184c0.287,0.231,0.725,0.365,1.097,0.365
				c16.598,0,33.208,0,49.817-0.024c0.427,0,0.939-0.158,1.263-0.414c7.078-5.83,11.871-13.135,14.194-22.024
				c0.067-0.22,0.08-0.464,0.116-0.72H9.714z M31.628,87.341c4.073,2.573,12.012,4.378,18.549,4.464
				c7.304,0.073,15.695-2.537,18.232-4.464H31.628z"/>
			<path fill-rule="evenodd" clip-rule="evenodd" fill="#FFFFFF" d="M37.378,40.805c-0.763-0.433-0.659-1.024-0.439-1.585
				c0.701-1.811,1.774-3.384,3.664-4.019c2.085-0.689,4.244-1.287,6.415-1.573c4.17-0.561,8.341-0.335,12.39,0.988
				c1.848,0.61,3.458,1.598,4.543,3.269c0.537,0.835,0.915,1.762,0.287,2.762c-3.329-2.561-7.214-3.323-11.215-3.707
				c-4.09-0.391-8.078,0.262-11.975,1.47C39.628,38.848,38.342,39.536,37.378,40.805"/>
			<path fill-rule="evenodd" clip-rule="evenodd" fill="#FFFFFF" d="M66.439,48.067c-2.146-1.756-4.781-2.17-7.366-2.646
				c-6.421-1.171-12.823-1.262-19.183,0.451c-0.726,0.189-1.457,0.36-2.146,0.665c-1,0.433-1.951,0.981-3.024,1.53
				c-0.707-0.585-0.848-0.945-0.085-1.707c0.738-0.726,1.61-1.439,2.561-1.787c8.805-3.286,17.684-3.061,26.573-0.286
				c1.214,0.372,2.359,0.848,3.086,1.945C67.39,47.049,67.262,47.542,66.439,48.067"/>
			<path fill-rule="evenodd" clip-rule="evenodd" fill="#FFFFFF" d="M33.33,54.537c11.5-3.842,22.988-3.104,34.494-0.049
				c0,0.098,0,0.207,0,0.305H33.366C33.354,54.708,33.342,54.61,33.33,54.537"/>
			<path fill-rule="evenodd" clip-rule="evenodd" fill="#FFFFFF" d="M51.372,10.232c0.146,0.451,0.372,0.902,0.427,1.366
				c0.098,1.061-0.464,2.158,0.183,3.195c0.013,0.024,0.013,0.062,0,0.085c-0.774,1.75,0.787,2.312,1.609,3.263
				c0.165,0.177,0.202,0.548,0.141,0.786c-0.152,0.537-0.513,1.037-0.573,1.574c-0.116,0.835-0.141,1.707,0.012,2.524
				c0.086,0.512,0.464,1.22,0.873,1.36c0.812,0.262,1.048,0.787,1.249,1.671c-2.907-1.134-5.78-1.336-8.64-0.037
				c-0.061-0.122-0.128-0.238-0.188-0.36c0.524-0.451,1.085-0.878,1.548-1.39c0.275-0.287,0.537-0.708,0.561-1.098
				c0.073-1.085,0.073-2.183,0-3.269c-0.024-0.402-0.311-0.805-0.5-1.25c0.628-0.64,1.335-1.384,2.061-2.11
				c0.348-0.353,0.701-0.665,0.213-1.164c-0.085-0.098-0.122-0.409-0.048-0.5c0.597-0.658,0.286-1.372,0.237-2.11
				c-0.055-0.811,0.195-1.634,0.311-2.445C51.023,10.299,51.194,10.256,51.372,10.232 M52.195,22.945
				c0.073-0.012,0.141-0.012,0.201-0.012v-3.232h-0.201V22.945z M49.488,19.634c-0.067,0-0.14,0-0.201,0v3.348
				c0.061,0,0.134,0,0.201,0V19.634z"/>
			<path fill-rule="evenodd" clip-rule="evenodd" fill="#FFFFFF" d="M47.5,32.933c0.079-2.421,0.5-4.622,1.738-6.591
				c0.152-0.244,0.573-0.305,0.878-0.452c0.11,0.299,0.311,0.598,0.323,0.884c0.037,1.689-0.012,3.372,0.024,5.061
				c0.012,0.683-0.25,0.945-0.939,0.933C48.915,32.768,48.287,32.872,47.5,32.933"/>
			<path fill-rule="evenodd" clip-rule="evenodd" fill="#FFFFFF" d="M51.079,29.244c0-0.811-0.037-1.622,0.024-2.421
				c0.012-0.323,0.237-0.628,0.378-0.939c0.348,0.213,0.909,0.348,1.013,0.665c0.523,1.445,1.036,2.921,1.348,4.433
				c0.372,1.896,0.286,1.872-1.61,1.811c-0.891-0.037-1.237-0.329-1.165-1.226C51.128,30.805,51.079,30.019,51.079,29.244"/>
			<path fill-rule="evenodd" clip-rule="evenodd" fill="#FFFFFF" d="M50.073,45.128c0,1.799,0.012,3.512-0.024,5.22
				c0,0.165-0.329,0.426-0.537,0.475c-1.835,0.403-2.024,0.225-2.024-1.622c0-1.061,0.024-2.122-0.012-3.183
				c-0.024-0.652,0.225-0.915,0.86-0.891C48.86,45.152,49.384,45.128,50.073,45.128"/>
			<path fill-rule="evenodd" clip-rule="evenodd" fill="#FFFFFF" d="M51.213,47.981c0-0.75,0.013-1.493,0-2.231
				c-0.012-0.476,0.171-0.701,0.659-0.64c0.061,0,0.115,0,0.188,0c1.812,0.079,1.812,0.079,1.812,1.902
				c0,1.049-0.013,2.11,0.012,3.159c0.013,0.561-0.177,0.774-0.75,0.762c-2.286-0.037-1.884,0.237-1.921-1.835
				C51.213,48.719,51.213,48.36,51.213,47.981"/>
			<path fill-rule="evenodd" clip-rule="evenodd" fill="#FFFFFF" d="M57.665,48.458c0,0.689-0.019,1.378,0,2.061
				c0.012,0.476-0.165,0.64-0.665,0.64c-2.012,0.012-2.012,0.024-2.012-1.987c0-1,0.012-2,0-3c-0.012-0.525,0.188-0.695,0.726-0.695
				c1.884,0,1.951,0.048,1.951,1.957V48.458"/>
			<path fill-rule="evenodd" clip-rule="evenodd" fill="#FFFFFF" d="M43.677,45.756c2.684-0.524,2.684-0.524,2.684,1.963
				c0,0.775-0.037,1.562,0.012,2.335c0.043,0.67-0.195,0.945-0.872,1.012c-1.823,0.159-1.823,0.184-1.823-1.627V45.756z"/>
			<path fill-rule="evenodd" clip-rule="evenodd" fill="#FFFFFF" d="M44.427,33.232c-0.366-2.323,2.457-7.232,4.042-6.915
				c-0.036,0.171-0.061,0.347-0.109,0.512c-0.488,1.598-1.037,3.183-1.439,4.793C46.549,33.122,46.098,33.482,44.427,33.232"/>
			<path fill-rule="evenodd" clip-rule="evenodd" fill="#FFFFFF" d="M57.28,33.195c-1.957,0.341-2.396-0.061-2.707-1.768
				c-0.317-1.726-0.854-3.396-1.312-5.22c0.231,0.037,0.598,0.012,0.763,0.159C55.908,28.269,56.708,30.665,57.28,33.195"/>
			<path fill-rule="evenodd" clip-rule="evenodd" fill="#FFFFFF" d="M61.128,48.988c0,0.652-0.013,1.305,0,1.963
				c0.012,0.561-0.2,0.762-0.786,0.689c-1.421-0.188-1.438-0.164-1.438-1.64c0-1.085,0.03-2.171,0-3.269
				c-0.013-0.597,0.236-0.75,0.804-0.665c1.384,0.214,1.421,0.238,1.421,1.616V48.988"/>
			<path fill-rule="evenodd" clip-rule="evenodd" fill="#FFFFFF" d="M42.396,45.988v5.311c-0.5,0.097-0.988,0.201-1.463,0.311
				c-0.5,0.122-0.713-0.085-0.713-0.562c0-1.371-0.024-2.749,0.031-4.109c0-0.238,0.262-0.585,0.469-0.646
				C41.22,46.116,41.744,46.091,42.396,45.988"/>
			<path fill-rule="evenodd" clip-rule="evenodd" fill="#FFFFFF" d="M48.098,39.695c0,1.763,0,1.763-1.713,1.951
				c-1.324,0.159-1.324,0.159-1.324-1.225v-0.085c0-2.134,0-2.098,2.073-2.433c0.811-0.14,1.024,0.134,0.963,0.86
				C48.073,39.073,48.098,39.384,48.098,39.695"/>
			<path fill-rule="evenodd" clip-rule="evenodd" fill="#FFFFFF" d="M53.25,39.665c0-1.835,0-1.799,1.823-1.67
				c0.908,0.061,1.385,0.335,1.238,1.348c-0.079,0.512-0.043,1.061,0,1.585c0.036,0.689-0.293,0.89-0.915,0.774
				c-0.122-0.024-0.25-0.024-0.372-0.037C53.25,41.452,53.25,41.452,53.25,39.665"/>
			<path fill-rule="evenodd" clip-rule="evenodd" fill="#FFFFFF" d="M49.348,39.482c0-2.006,0.049-2.085,2.109-1.812
				c0.238,0.031,0.61,0.415,0.635,0.665c0.079,0.811,0.079,1.622-0.013,2.433c-0.024,0.238-0.396,0.616-0.646,0.641
				C49.348,41.658,49.348,41.634,49.348,39.482"/>
			<path fill-rule="evenodd" clip-rule="evenodd" fill="#FFFFFF" d="M46.317,26.927c-0.201,0.409-0.274,0.634-0.402,0.835
				c-1.073,1.585-1.884,3.269-2.232,5.183c-0.165,0.908-0.927,1.037-1.689,1.109C41.542,32.11,44.019,27.909,46.317,26.927"/>
			<path fill-rule="evenodd" clip-rule="evenodd" fill="#FFFFFF" d="M55.561,27.043c1.896,0.976,4.372,5.226,3.994,7.006
				c-0.634-0.098-1.311-0.085-1.598-0.823C57.146,31.153,56.36,29.092,55.561,27.043"/>
			<path fill-rule="evenodd" clip-rule="evenodd" fill="#FFFFFF" d="M39.08,46.927c0,1.573,0.079,3.165-0.061,4.726
				c-0.037,0.286-0.927,0.506-1.646,0.872c0-1.835-0.092-3.335,0.061-4.793c0.037-0.377,0.847-0.677,1.298-1.012
				C38.842,46.792,38.97,46.854,39.08,46.927"/>
			<path fill-rule="evenodd" clip-rule="evenodd" fill="#FFFFFF" d="M63.988,52.342c-0.647-0.11-1.146-0.195-1.684-0.287v-4.969
				c1.269-0.11,1.684,0.226,1.684,1.348V52.342"/>
			<path fill-rule="evenodd" clip-rule="evenodd" fill="#FFFFFF" d="M57.231,38.433c0.823,0.201,1.488,0.354,2.122,0.537
				c0.128,0.055,0.263,0.287,0.263,0.439c0.03,0.927,0.03,1.86,0.03,2.921c-0.762-0.122-1.402-0.208-2.024-0.348
				c-0.152-0.036-0.366-0.274-0.378-0.439C57.22,40.561,57.231,39.573,57.231,38.433"/>
			<path fill-rule="evenodd" clip-rule="evenodd" fill="#FFFFFF" d="M41.713,42.213c0-0.945-0.012-1.896,0.024-2.859
				c0-0.134,0.226-0.336,0.403-0.409c0.372-0.153,0.774-0.214,1.159-0.335c0.616-0.201,0.89,0.012,0.823,0.646
				c-0.012,0.286,0,0.561,0,0.847C44.122,42.14,43.964,42.293,41.713,42.213"/>
			<path fill-rule="evenodd" clip-rule="evenodd" fill="#FFFFFF" d="M35.238,52.793c0-1.287-0.049-2.549,0.037-3.805
				c0.024-0.33,0.487-0.628,0.92-1.165c0.128,0.561,0.214,0.798,0.226,1.049c0.012,1-0.012,2,0.012,2.987
				C36.446,52.61,36.073,52.842,35.238,52.793"/>
			<path fill-rule="evenodd" clip-rule="evenodd" fill="#FFFFFF" d="M40.744,39.506c0,1,0.098,1.952-0.067,2.86
				c-0.037,0.304-0.774,0.475-1.182,0.701c-0.128-0.274-0.299-0.537-0.378-0.823c-0.061-0.263-0.012-0.562-0.012-0.835
				C39.104,40.159,39.244,39.994,40.744,39.506"/>
			<path fill-rule="evenodd" clip-rule="evenodd" fill="#FFFFFF" d="M60.604,39.452c1.523,0.627,2.134,1.988,1.597,3.286
				c-0.049,0.152-0.359,0.335-0.463,0.287c-0.397-0.183-1.036-0.396-1.085-0.683C60.513,41.439,60.604,40.5,60.604,39.452"/>
			<path fill-rule="evenodd" clip-rule="evenodd" fill="#FFFFFF" d="M65.274,48.134c0.274,0.323,0.774,0.609,0.799,0.951
				c0.086,1.256,0.037,2.53,0.037,3.854c-0.86-0.073-1.238-0.372-1.195-1.184c0.049-1.165,0.013-2.323,0.013-3.5
				C65.036,48.22,65.146,48.183,65.274,48.134"/>
			<path fill-rule="evenodd" clip-rule="evenodd" fill="#FFFFFF" d="M43.305,28.403c-0.835,1.927-1.726,3.988-2.622,6.037
				c-0.055,0.097-0.25,0.146-0.378,0.219C39.769,33.549,42.031,29.116,43.305,28.403"/>
			<path fill-rule="evenodd" clip-rule="evenodd" fill="#FFFFFF" d="M57.927,28.33c1.872,1.713,3.109,3.726,3.47,6.195
				c-0.086,0.048-0.159,0.116-0.244,0.165c-0.2-0.225-0.53-0.439-0.591-0.701c-0.464-1.957-1.275-3.756-2.562-5.329
				C57.939,28.585,57.951,28.445,57.927,28.33"/>
			<path fill-rule="evenodd" clip-rule="evenodd" fill="#FFFFFF" d="M63.183,40.884c0.97,0.89,0.513,1.878,0.586,2.847
				C62.793,43.421,62.543,42.159,63.183,40.884"/>
			<path fill-rule="evenodd" clip-rule="evenodd" fill="#FFFFFF" d="M38.153,40.951c0.604,0.976,0.438,2.287-0.323,2.787
				C37.317,42.939,37.446,41.689,38.153,40.951"/>
			<path fill-rule="evenodd" clip-rule="evenodd" fill="#FFFFFF" d="M39.031,69.463c1.061,0.806,2.226,1.403,3.049,2.317
				c2.445,2.732,1.811,6.684-1.262,8.659c-1.372,0.89-2.909,1.292-4.518,1.304c-3.659,0.024-7.305,0.024-10.951,0.024
				c-0.238,0-0.464-0.085-0.787-0.134c0.159-0.269,0.208-0.513,0.335-0.562c1.037-0.377,1.061-1.219,1.061-2.146
				c-0.024-4.744-0.024-9.488-0.012-14.219c0-1.123-0.061-2.171-1.238-2.83c-0.548-0.293-0.384-0.732,0.189-0.902
				c0.275-0.072,0.549-0.121,0.823-0.121c3.348,0,6.683-0.025,10.03,0c3.183,0.049,5.415,2.267,5.195,5.121
				C40.817,67.463,40.006,68.586,39.031,69.463 M30.842,75.158c0,0.744,0,1.488,0,2.231c0,1.099,0.189,1.281,1.226,1.294
				c0.958,0.012,1.933,0.012,2.884,0c1.908-0.037,3.134-1.343,3.207-3.367c0.073-1.878-1.348-3.658-3.049-3.768
				c-1.11-0.062-2.231-0.024-3.36-0.013c-0.646,0.013-0.945,0.342-0.908,1.013C30.866,73.414,30.842,74.293,30.842,75.158
				 M30.842,66.024c0,0.695-0.061,1.378,0.024,2.073c0.037,0.305,0.274,0.708,0.549,0.842c0.951,0.499,2.921,0.061,3.646-0.744
				c1.012-1.099,1.146-2.562,0.373-3.683c-0.873-1.27-2.793-1.927-4.067-1.33c-0.25,0.109-0.476,0.5-0.5,0.793
				C30.793,64.659,30.842,65.341,30.842,66.024"/>
			<path fill-rule="evenodd" clip-rule="evenodd" fill="#FFFFFF" d="M70.421,81.414c-5.037-0.158-9.33-4.317-9.628-9.427
				c-0.177-2.976,0.433-5.731,2.42-8.012c2.549-2.952,5.842-3.854,9.556-3.012c3.836,0.841,6.141,3.427,7.104,7.158
				c1.414,5.463-1.323,10.926-6.28,12.609C72.58,81.097,71.481,81.194,70.421,81.414 M65.976,70.915
				c0.238,1.5,0.336,2.914,0.708,4.243c0.499,1.865,1.762,2.842,3.427,2.951c1.92,0.11,3.292-0.646,4.055-2.512
				c1.322-3.207,1.249-6.452-0.263-9.573c-0.75-1.561-1.957-2.513-3.792-2.354c-1.774,0.146-2.849,1.231-3.299,2.842
				C66.396,67.976,66.238,69.5,65.976,70.915"/>
			<path fill-rule="evenodd" clip-rule="evenodd" fill="#FFFFFF" d="M49.208,70.866c-1.061-0.769-1.774-1.672-1.726-3.001
				c0.061-1.658,1.036-3.023,2.659-3.268c1.14-0.183,2.378-0.158,3.512,0.073c2.458,0.523,3.372,2.743,2.134,4.963
				C55.5,70.146,55.085,70.586,54.775,71c0.81,1.391,1.621,2.756,2.438,4.146c0.244-0.219,0.574-0.499,0.958-0.828
				c0.488,1.023,0.75,1.914,0,2.938c-0.695,0.964-0.348,1.792,0.835,1.914c0.842,0.086,1.08,0.598,1,1.147
				c-0.061,0.414-0.524,0.914-0.921,1.085c-0.798,0.365-1.598,0.134-2.273-0.427c-0.299-0.256-0.586-0.549-0.951-0.902
				c-1.836,1.354-3.885,2.171-6.245,1.536c-1.255-0.329-2.292-1.072-3.03-2.195C45.195,77.305,45.433,73.598,49.208,70.866
				 M51.78,72.646c-0.402,0.305-0.774,0.523-1.091,0.816c-1.384,1.208-1.494,2.952-0.286,4.195c0.962,1,2.883,0.854,4.012-0.354
				c0.146-0.159,0.299-0.536,0.214-0.683C53.878,75.207,53.274,73.658,51.78,72.646 M52.616,66.635
				c-0.988,0.024-1.738,0.608-1.713,1.365c0.012,0.684,1.091,1.5,1.915,1.463c0.762-0.036,1.598-0.779,1.609-1.438
				C54.427,67.292,53.579,66.635,52.616,66.635"/>
		</g>
	</g>
</g>
<g id="Capa_2">
	<g>
		<path fill-rule="evenodd" clip-rule="evenodd" fill="#FFFFFF" d="M49.923,100C21.919,99.829-0.036,77.24,0.013,49.919
			c0.049-27.9,22.857-50.447,50.996-49.91c27.413,0.524,49.6,23.193,48.965,51.178C99.364,77.825,77.702,99.902,49.923,100"/>
		<path fill-rule="evenodd" clip-rule="evenodd" fill="#337335" d="M95.998,50.431c0,1.818,0.012,3.634,0,5.44
			c0,1.366-0.5,1.878-1.848,1.891c-2.501,0-4.995-0.037-7.483,0.024c-0.646,0.012-1.372,0.195-1.908,0.549
			c-11.429,7.416-22.846,14.88-34.25,22.345c-0.646,0.415-1.073,0.415-1.726-0.013c-11.203-7.477-22.43-14.94-33.669-22.369
			c-0.476-0.329-1.134-0.5-1.726-0.512c-2.458-0.062-4.927-0.024-7.391-0.024c-1.384-0.013-1.945-0.549-1.945-1.928
			c-0.012-3.598-0.012-7.183,0-10.775c0-1.287,0.537-1.824,1.811-1.836c2.494-0.012,5.007,0.037,7.489-0.024
			c0.641-0.03,1.366-0.213,1.903-0.567c11.203-7.428,22.394-14.875,33.572-22.339c0.61-0.415,1.012-0.439,1.634-0.03
			c11.38,7.47,22.766,14.904,34.134,22.357c0.677,0.427,1.312,0.616,2.098,0.616c2.464-0.037,4.934-0.024,7.397-0.012
			c1.458,0,1.909,0.445,1.909,1.885C96.01,46.882,95.998,48.663,95.998,50.431 M50.1,56.859h43.647c1.379,0,1.415-0.049,1.415-1.428
			c0-3.402-0.024-6.805,0.013-10.214c0.012-0.896-0.323-1.195-1.214-1.195c-29.248,0.024-58.503,0.012-87.751,0.024
			c-1.11,0-1.238,0.122-1.238,1.238c0,3.342,0,6.683,0,10.025c0,1.537,0,1.55,1.574,1.55H50.1z M49.649,80.155
			c11.337-7.403,22.668-14.795,34.195-22.333H16.339c-0.024,0.049-0.037,0.098-0.061,0.159C27.39,65.36,38.495,72.728,49.649,80.155
			 M83.771,43.168c-0.287-0.22-0.402-0.335-0.524-0.409c-11.002-7.184-21.997-14.362-32.987-21.558
			c-0.537-0.348-0.86-0.213-1.311,0.085C38.245,28.41,27.53,35.515,16.827,42.632c-0.189,0.128-0.354,0.287-0.665,0.537H83.771z"/>
		<path fill-rule="evenodd" clip-rule="evenodd" fill="#337335" d="M69.438,55.018c-1.713,0.268-1.713,0.268-2.262-1.244
			c-0.274-0.806-0.562-1.586-0.848-2.379c-0.013-0.049-0.08-0.085-0.238-0.22v3.879H64.39v-9.299
			c1.701-0.238,1.701-0.238,2.238,1.25c0.299,0.866,0.622,1.708,1.109,2.549v-3.842h1.701V55.018z"/>
		<path fill-rule="evenodd" clip-rule="evenodd" fill="#337335" d="M25.017,45.736c1.634-0.183,1.634-0.183,2.159,1.281
			c0.286,0.805,0.573,1.61,1.073,2.378v-3.696h1.738v9.257c-1.5,0.415-1.665,0.329-2.177-1.061
			c-0.323-0.866-0.646-1.732-1.146-2.562v3.708h-1.646V45.736z"/>
		<path fill-rule="evenodd" clip-rule="evenodd" fill="#337335" d="M82.014,55.005c-1.701,0.256-1.701,0.269-2.085-1.207
			c-0.226-0.806-0.403-1.646-0.665-2.428c-0.085-0.269-0.396-0.451-0.598-0.67c-0.098,0.049-0.189,0.098-0.274,0.159v4.208h-1.635
			v-9.367c1.135,0,2.257-0.128,3.349,0.049c0.536,0.085,1.231,0.646,1.421,1.146c0.384,1.122,0.487,2.317-0.372,3.367
			c-0.165,0.195-0.201,0.609-0.141,0.902C81.313,52.419,81.666,53.676,82.014,55.005 M78.416,49.236
			c0.549-0.171,1.098-0.195,1.396-0.463c0.189-0.171,0.177-0.927-0.024-1.098c-0.311-0.256-0.86-0.244-1.372-0.366V49.236z"/>
		<path fill-rule="evenodd" clip-rule="evenodd" fill="#337335" d="M86.936,45.657c0.854,3.177,1.665,6.262,2.5,9.385
			c-0.963,0.085-1.921,0.39-2.085-0.988c-0.024-0.158-0.348-0.366-0.537-0.378c-0.714-0.049-1.427-0.013-2.11-0.013
			c-0.64,1.622-0.688,1.646-2.201,1.306c0.689-2.928,1.348-5.867,2.062-8.782c0.049-0.219,0.378-0.463,0.604-0.488
			C85.716,45.608,86.276,45.657,86.936,45.657 M86.765,51.895c-0.305-1.122-0.579-2.146-0.842-3.17c-0.061,0-0.122,0-0.183,0.024
			c-0.226,1.024-0.451,2.049-0.689,3.146H86.765z"/>
		<path fill-rule="evenodd" clip-rule="evenodd" fill="#337335" d="M37.019,50.457c0,0.938,0.037,1.877,0,2.804
			c-0.055,1.122-0.726,1.769-1.836,1.854c-0.378,0.024-0.75,0-1.116,0c-1.244-0.049-2.019-0.72-2.062-1.952
			c-0.061-1.829-0.049-3.658,0-5.5c0.031-1.256,0.842-1.964,2.104-2c0.311,0,0.622-0.012,0.933,0c1.25,0.049,1.939,0.744,1.988,2
			c0.012,0.463,0,0.939,0,1.402v1.391H37.019z M35.33,50.334c0-0.708-0.012-1.439,0-2.147c0.012-0.537-0.25-0.805-0.787-0.781
			c-0.549,0-0.774,0.281-0.774,0.817c0.012,1.464,0.024,2.915,0,4.378c0,0.561,0.262,0.78,0.799,0.78
			c0.549,0,0.774-0.269,0.762-0.805C35.317,51.834,35.33,51.09,35.33,50.334"/>
		<path fill-rule="evenodd" clip-rule="evenodd" fill="#337335" d="M56.126,52.176h1.524c0.263,1.365,0,2.207-0.799,2.671
			c-0.726,0.427-2.763,0.438-3.312-0.135c-0.384-0.402-0.75-1.036-0.774-1.585c-0.086-1.817-0.049-3.622-0.024-5.427
			c0.012-1.244,0.799-1.988,2.062-2.043c0.25,0,0.5,0,0.75,0c1.659,0.03,2.36,0.896,2.135,2.653h-1.458
			c-0.152-0.269-0.226-0.61-0.451-0.756c-0.226-0.134-0.641-0.183-0.859-0.061c-0.214,0.11-0.391,0.476-0.403,0.744
			c-0.036,1.305-0.036,2.61-0.012,3.927c0,0.537-0.152,1.195,0.737,1.22C56.065,53.407,56.089,52.847,56.126,52.176"/>
		<path fill-rule="evenodd" clip-rule="evenodd" fill="#337335" d="M58.938,55.054v-9.318h3.507v1.622h-1.684v1.513h1.684v1.78
			c-0.573,0.049-1.122,0.073-1.72,0.11v2.622h1.75v1.671H58.938z"/>
		<path fill-rule="evenodd" clip-rule="evenodd" fill="#337335" d="M45.904,45.663v1.671c-0.299,0.024-0.598,0.049-0.896,0.049
			c-0.951,0.049-1.238,0.512-0.75,1.354c0.384,0.671,0.988,1.232,1.287,1.939c0.348,0.854,0.683,1.83,0.671,2.732
			c-0.012,1.073-0.787,1.622-1.872,1.684c-0.646,0.049-1.299,0-2,0v-1.708c0.391,0,0.726,0,1.049,0
			c0.963-0.024,1.354-0.598,0.939-1.488c-0.287-0.609-0.701-1.17-1.024-1.768c-0.323-0.573-0.677-1.134-0.884-1.744
			c-0.5-1.415,0.372-2.652,1.884-2.72C44.794,45.65,45.307,45.663,45.904,45.663"/>
		<path fill-rule="evenodd" clip-rule="evenodd" fill="#337335" d="M73.964,55.066h-1.763v-7.611
			c-0.536-0.049-0.951-0.073-1.408-0.122v-1.592h4.695v1.592c-0.463,0.024-0.938,0.049-1.524,0.098V55.066z"/>
		<polygon fill-rule="evenodd" clip-rule="evenodd" fill="#337335" points="93.491,55.066 90.131,55.066 90.131,45.73 91.735,45.73 
			91.735,53.358 93.491,53.358 		"/>
		<polygon fill-rule="evenodd" clip-rule="evenodd" fill="#337335" points="16.461,55.042 16.461,45.724 18.095,45.724 
			18.095,53.358 19.858,53.358 19.858,55.042 		"/>
		<path fill-rule="evenodd" clip-rule="evenodd" fill="#337335" d="M13.229,45.724v7.61c0.609,0.037,1.159,0.049,1.756,0.085v1.623
			h-3.434v-9.318H13.229z"/>
		<rect x="38.928" y="45.736" fill-rule="evenodd" clip-rule="evenodd" fill="#337335" width="1.671" height="9.331"/>
		<rect x="21.12" y="45.699" fill-rule="evenodd" clip-rule="evenodd" fill="#337335" width="1.574" height="9.343"/>
		<rect x="7.801" y="45.699" fill-rule="evenodd" clip-rule="evenodd" fill="#337335" width="1.616" height="9.354"/>
		<path fill-rule="evenodd" clip-rule="evenodd" fill="#337335" d="M79.397,59.226c-9.903,6.452-19.819,12.929-29.749,19.405
			c-9.764-6.489-19.497-12.953-29.45-19.552H79.3C79.337,59.128,79.361,59.177,79.397,59.226"/>
		<path fill-rule="evenodd" clip-rule="evenodd" fill="#337335" d="M79.508,41.894h-59.15c0.25-0.214,0.415-0.378,0.598-0.5
			c9.343-6.208,18.698-12.417,28.041-18.637c0.439-0.287,0.762-0.372,1.25-0.061c9.569,6.269,19.162,12.526,28.737,18.771
			C79.123,41.571,79.245,41.68,79.508,41.894"/>
	</g>
</g>
</svg>
