<?xml version="1.0" encoding="utf-8"?>
<!-- Generator: Adobe Illustrator 16.0.0, SVG Export Plug-In . SVG Version: 6.00 Build 0)  -->
<!DOCTYPE svg PUBLIC "-//W3C//DTD SVG 1.1//EN" "http://www.w3.org/Graphics/SVG/1.1/DTD/svg11.dtd">
<svg version="1.1" xmlns="http://www.w3.org/2000/svg" xmlns:xlink="http://www.w3.org/1999/xlink" x="0px" y="0px" width="100px"
	 height="100px" viewBox="0 0 100 100" enable-background="new 0 0 100 100" xml:space="preserve">
<g id="Capa_1" display="none">
	<g display="inline">
		<path fill-rule="evenodd" clip-rule="evenodd" fill="#05509E" d="M50,6.811c23.848,0,43.183,19.348,43.183,43.183
			c0,23.859-19.335,43.2-43.183,43.2c-23.854,0-43.183-19.341-43.183-43.2C6.817,26.159,26.146,6.811,50,6.811"/>
		<g>
			<path fill-rule="evenodd" clip-rule="evenodd" fill="#FFFFFF" d="M49.976,0c27.622-0.012,50.024,22.391,50,50
				c-0.012,27.646-22.366,50-50,50C22.391,100-0.091,77.487,0.025,49.951C0.135,22.293,22.415,0.012,49.976,0 M8.939,55.365h82.347
				c1.848-10.573-1.463-27.469-16.226-38.505C60.604,6.043,40.835,5.781,26.171,16.171C10.848,27.024,7.226,44.055,8.939,55.365
				 M9.714,59.769c0.049,0.28,0.073,0.451,0.122,0.634c2.263,9.012,7.098,16.354,14.25,22.184c0.287,0.231,0.725,0.365,1.097,0.365
				c16.598,0,33.208,0,49.817-0.024c0.427,0,0.939-0.158,1.263-0.414c7.078-5.83,11.871-13.135,14.194-22.024
				c0.067-0.22,0.08-0.464,0.116-0.72H9.714z M31.628,87.341c4.073,2.573,12.012,4.378,18.549,4.464
				c7.304,0.073,15.695-2.537,18.232-4.464H31.628z"/>
			<path fill-rule="evenodd" clip-rule="evenodd" fill="#FFFFFF" d="M37.378,40.805c-0.763-0.433-0.659-1.024-0.439-1.585
				c0.701-1.811,1.774-3.384,3.664-4.019c2.085-0.689,4.244-1.287,6.415-1.573c4.17-0.561,8.341-0.335,12.39,0.988
				c1.848,0.61,3.458,1.598,4.543,3.269c0.537,0.835,0.915,1.762,0.287,2.762c-3.329-2.561-7.214-3.323-11.215-3.707
				c-4.09-0.391-8.078,0.262-11.975,1.47C39.628,38.848,38.342,39.536,37.378,40.805"/>
			<path fill-rule="evenodd" clip-rule="evenodd" fill="#FFFFFF" d="M66.439,48.067c-2.146-1.756-4.781-2.17-7.366-2.646
				c-6.421-1.171-12.823-1.262-19.183,0.451c-0.726,0.189-1.457,0.36-2.146,0.665c-1,0.433-1.951,0.981-3.024,1.53
				c-0.707-0.585-0.848-0.945-0.085-1.707c0.738-0.726,1.61-1.439,2.561-1.787c8.805-3.286,17.684-3.061,26.573-0.286
				c1.214,0.372,2.359,0.848,3.086,1.945C67.39,47.049,67.262,47.542,66.439,48.067"/>
			<path fill-rule="evenodd" clip-rule="evenodd" fill="#FFFFFF" d="M33.33,54.537c11.5-3.842,22.988-3.104,34.494-0.049
				c0,0.098,0,0.207,0,0.305H33.366C33.354,54.708,33.342,54.61,33.33,54.537"/>
			<path fill-rule="evenodd" clip-rule="evenodd" fill="#FFFFFF" d="M51.372,10.232c0.146,0.451,0.372,0.902,0.427,1.366
				c0.098,1.061-0.464,2.158,0.183,3.195c0.013,0.024,0.013,0.062,0,0.085c-0.774,1.75,0.787,2.312,1.609,3.263
				c0.165,0.177,0.202,0.548,0.141,0.786c-0.152,0.537-0.513,1.037-0.573,1.574c-0.116,0.835-0.141,1.707,0.012,2.524
				c0.086,0.512,0.464,1.22,0.873,1.36c0.812,0.262,1.048,0.787,1.249,1.671c-2.907-1.134-5.78-1.336-8.64-0.037
				c-0.061-0.122-0.128-0.238-0.188-0.36c0.524-0.451,1.085-0.878,1.548-1.39c0.275-0.287,0.537-0.708,0.561-1.098
				c0.073-1.085,0.073-2.183,0-3.269c-0.024-0.402-0.311-0.805-0.5-1.25c0.628-0.64,1.335-1.384,2.061-2.11
				c0.348-0.353,0.701-0.665,0.213-1.164c-0.085-0.098-0.122-0.409-0.048-0.5c0.597-0.658,0.286-1.372,0.237-2.11
				c-0.055-0.811,0.195-1.634,0.311-2.445C51.023,10.299,51.194,10.256,51.372,10.232 M52.195,22.945
				c0.073-0.012,0.141-0.012,0.201-0.012v-3.232h-0.201V22.945z M49.488,19.634c-0.067,0-0.14,0-0.201,0v3.348
				c0.061,0,0.134,0,0.201,0V19.634z"/>
			<path fill-rule="evenodd" clip-rule="evenodd" fill="#FFFFFF" d="M47.5,32.933c0.079-2.421,0.5-4.622,1.738-6.591
				c0.152-0.244,0.573-0.305,0.878-0.452c0.11,0.299,0.311,0.598,0.323,0.884c0.037,1.689-0.012,3.372,0.024,5.061
				c0.012,0.683-0.25,0.945-0.939,0.933C48.915,32.768,48.287,32.872,47.5,32.933"/>
			<path fill-rule="evenodd" clip-rule="evenodd" fill="#FFFFFF" d="M51.079,29.244c0-0.811-0.037-1.622,0.024-2.421
				c0.012-0.323,0.237-0.628,0.378-0.939c0.348,0.213,0.909,0.348,1.013,0.665c0.523,1.445,1.036,2.921,1.348,4.433
				c0.372,1.896,0.286,1.872-1.61,1.811c-0.891-0.037-1.237-0.329-1.165-1.226C51.128,30.805,51.079,30.019,51.079,29.244"/>
			<path fill-rule="evenodd" clip-rule="evenodd" fill="#FFFFFF" d="M50.073,45.128c0,1.799,0.012,3.512-0.024,5.22
				c0,0.165-0.329,0.426-0.537,0.475c-1.835,0.403-2.024,0.225-2.024-1.622c0-1.061,0.024-2.122-0.012-3.183
				c-0.024-0.652,0.225-0.915,0.86-0.891C48.86,45.152,49.384,45.128,50.073,45.128"/>
			<path fill-rule="evenodd" clip-rule="evenodd" fill="#FFFFFF" d="M51.213,47.981c0-0.75,0.013-1.493,0-2.231
				c-0.012-0.476,0.171-0.701,0.659-0.64c0.061,0,0.115,0,0.188,0c1.812,0.079,1.812,0.079,1.812,1.902
				c0,1.049-0.013,2.11,0.012,3.159c0.013,0.561-0.177,0.774-0.75,0.762c-2.286-0.037-1.884,0.237-1.921-1.835
				C51.213,48.719,51.213,48.36,51.213,47.981"/>
			<path fill-rule="evenodd" clip-rule="evenodd" fill="#FFFFFF" d="M57.665,48.458c0,0.689-0.019,1.378,0,2.061
				c0.012,0.476-0.165,0.64-0.665,0.64c-2.012,0.012-2.012,0.024-2.012-1.987c0-1,0.012-2,0-3c-0.012-0.525,0.188-0.695,0.726-0.695
				c1.884,0,1.951,0.048,1.951,1.957V48.458"/>
			<path fill-rule="evenodd" clip-rule="evenodd" fill="#FFFFFF" d="M43.677,45.756c2.684-0.524,2.684-0.524,2.684,1.963
				c0,0.775-0.037,1.562,0.012,2.335c0.043,0.67-0.195,0.945-0.872,1.012c-1.823,0.159-1.823,0.184-1.823-1.627V45.756z"/>
			<path fill-rule="evenodd" clip-rule="evenodd" fill="#FFFFFF" d="M44.427,33.232c-0.366-2.323,2.457-7.232,4.042-6.915
				c-0.036,0.171-0.061,0.347-0.109,0.512c-0.488,1.598-1.037,3.183-1.439,4.793C46.549,33.122,46.098,33.482,44.427,33.232"/>
			<path fill-rule="evenodd" clip-rule="evenodd" fill="#FFFFFF" d="M57.28,33.195c-1.957,0.341-2.396-0.061-2.707-1.768
				c-0.317-1.726-0.854-3.396-1.312-5.22c0.231,0.037,0.598,0.012,0.763,0.159C55.908,28.269,56.708,30.665,57.28,33.195"/>
			<path fill-rule="evenodd" clip-rule="evenodd" fill="#FFFFFF" d="M61.128,48.988c0,0.652-0.013,1.305,0,1.963
				c0.012,0.561-0.2,0.762-0.786,0.689c-1.421-0.188-1.438-0.164-1.438-1.64c0-1.085,0.03-2.171,0-3.269
				c-0.013-0.597,0.236-0.75,0.804-0.665c1.384,0.214,1.421,0.238,1.421,1.616V48.988"/>
			<path fill-rule="evenodd" clip-rule="evenodd" fill="#FFFFFF" d="M42.396,45.988v5.311c-0.5,0.097-0.988,0.201-1.463,0.311
				c-0.5,0.122-0.713-0.085-0.713-0.562c0-1.371-0.024-2.749,0.031-4.109c0-0.238,0.262-0.585,0.469-0.646
				C41.22,46.116,41.744,46.091,42.396,45.988"/>
			<path fill-rule="evenodd" clip-rule="evenodd" fill="#FFFFFF" d="M48.098,39.695c0,1.763,0,1.763-1.713,1.951
				c-1.324,0.159-1.324,0.159-1.324-1.225v-0.085c0-2.134,0-2.098,2.073-2.433c0.811-0.14,1.024,0.134,0.963,0.86
				C48.073,39.073,48.098,39.384,48.098,39.695"/>
			<path fill-rule="evenodd" clip-rule="evenodd" fill="#FFFFFF" d="M53.25,39.665c0-1.835,0-1.799,1.823-1.67
				c0.908,0.061,1.385,0.335,1.238,1.348c-0.079,0.512-0.043,1.061,0,1.585c0.036,0.689-0.293,0.89-0.915,0.774
				c-0.122-0.024-0.25-0.024-0.372-0.037C53.25,41.452,53.25,41.452,53.25,39.665"/>
			<path fill-rule="evenodd" clip-rule="evenodd" fill="#FFFFFF" d="M49.348,39.482c0-2.006,0.049-2.085,2.109-1.812
				c0.238,0.031,0.61,0.415,0.635,0.665c0.079,0.811,0.079,1.622-0.013,2.433c-0.024,0.238-0.396,0.616-0.646,0.641
				C49.348,41.658,49.348,41.634,49.348,39.482"/>
			<path fill-rule="evenodd" clip-rule="evenodd" fill="#FFFFFF" d="M46.317,26.927c-0.201,0.409-0.274,0.634-0.402,0.835
				c-1.073,1.585-1.884,3.269-2.232,5.183c-0.165,0.908-0.927,1.037-1.689,1.109C41.542,32.11,44.019,27.909,46.317,26.927"/>
			<path fill-rule="evenodd" clip-rule="evenodd" fill="#FFFFFF" d="M55.561,27.043c1.896,0.976,4.372,5.226,3.994,7.006
				c-0.634-0.098-1.311-0.085-1.598-0.823C57.146,31.153,56.36,29.092,55.561,27.043"/>
			<path fill-rule="evenodd" clip-rule="evenodd" fill="#FFFFFF" d="M39.08,46.927c0,1.573,0.079,3.165-0.061,4.726
				c-0.037,0.286-0.927,0.506-1.646,0.872c0-1.835-0.092-3.335,0.061-4.793c0.037-0.377,0.847-0.677,1.298-1.012
				C38.842,46.792,38.97,46.854,39.08,46.927"/>
			<path fill-rule="evenodd" clip-rule="evenodd" fill="#FFFFFF" d="M63.988,52.342c-0.647-0.11-1.146-0.195-1.684-0.287v-4.969
				c1.269-0.11,1.684,0.226,1.684,1.348V52.342"/>
			<path fill-rule="evenodd" clip-rule="evenodd" fill="#FFFFFF" d="M57.231,38.433c0.823,0.201,1.488,0.354,2.122,0.537
				c0.128,0.055,0.263,0.287,0.263,0.439c0.03,0.927,0.03,1.86,0.03,2.921c-0.762-0.122-1.402-0.208-2.024-0.348
				c-0.152-0.036-0.366-0.274-0.378-0.439C57.22,40.561,57.231,39.573,57.231,38.433"/>
			<path fill-rule="evenodd" clip-rule="evenodd" fill="#FFFFFF" d="M41.713,42.213c0-0.945-0.012-1.896,0.024-2.859
				c0-0.134,0.226-0.336,0.403-0.409c0.372-0.153,0.774-0.214,1.159-0.335c0.616-0.201,0.89,0.012,0.823,0.646
				c-0.012,0.286,0,0.561,0,0.847C44.122,42.14,43.964,42.293,41.713,42.213"/>
			<path fill-rule="evenodd" clip-rule="evenodd" fill="#FFFFFF" d="M35.238,52.793c0-1.287-0.049-2.549,0.037-3.805
				c0.024-0.33,0.487-0.628,0.92-1.165c0.128,0.561,0.214,0.798,0.226,1.049c0.012,1-0.012,2,0.012,2.987
				C36.446,52.61,36.073,52.842,35.238,52.793"/>
			<path fill-rule="evenodd" clip-rule="evenodd" fill="#FFFFFF" d="M40.744,39.506c0,1,0.098,1.952-0.067,2.86
				c-0.037,0.304-0.774,0.475-1.182,0.701c-0.128-0.274-0.299-0.537-0.378-0.823c-0.061-0.263-0.012-0.562-0.012-0.835
				C39.104,40.159,39.244,39.994,40.744,39.506"/>
			<path fill-rule="evenodd" clip-rule="evenodd" fill="#FFFFFF" d="M60.604,39.452c1.523,0.627,2.134,1.988,1.597,3.286
				c-0.049,0.152-0.359,0.335-0.463,0.287c-0.397-0.183-1.036-0.396-1.085-0.683C60.513,41.439,60.604,40.5,60.604,39.452"/>
			<path fill-rule="evenodd" clip-rule="evenodd" fill="#FFFFFF" d="M65.274,48.134c0.274,0.323,0.774,0.609,0.799,0.951
				c0.086,1.256,0.037,2.53,0.037,3.854c-0.86-0.073-1.238-0.372-1.195-1.184c0.049-1.165,0.013-2.323,0.013-3.5
				C65.036,48.22,65.146,48.183,65.274,48.134"/>
			<path fill-rule="evenodd" clip-rule="evenodd" fill="#FFFFFF" d="M43.305,28.403c-0.835,1.927-1.726,3.988-2.622,6.037
				c-0.055,0.097-0.25,0.146-0.378,0.219C39.769,33.549,42.031,29.116,43.305,28.403"/>
			<path fill-rule="evenodd" clip-rule="evenodd" fill="#FFFFFF" d="M57.927,28.33c1.872,1.713,3.109,3.726,3.47,6.195
				c-0.086,0.048-0.159,0.116-0.244,0.165c-0.2-0.225-0.53-0.439-0.591-0.701c-0.464-1.957-1.275-3.756-2.562-5.329
				C57.939,28.585,57.951,28.445,57.927,28.33"/>
			<path fill-rule="evenodd" clip-rule="evenodd" fill="#FFFFFF" d="M63.183,40.884c0.97,0.89,0.513,1.878,0.586,2.847
				C62.793,43.421,62.543,42.159,63.183,40.884"/>
			<path fill-rule="evenodd" clip-rule="evenodd" fill="#FFFFFF" d="M38.153,40.951c0.604,0.976,0.438,2.287-0.323,2.787
				C37.317,42.939,37.446,41.689,38.153,40.951"/>
			<path fill-rule="evenodd" clip-rule="evenodd" fill="#FFFFFF" d="M39.031,69.463c1.061,0.806,2.226,1.403,3.049,2.317
				c2.445,2.732,1.811,6.684-1.262,8.659c-1.372,0.89-2.909,1.292-4.518,1.304c-3.659,0.024-7.305,0.024-10.951,0.024
				c-0.238,0-0.464-0.085-0.787-0.134c0.159-0.269,0.208-0.513,0.335-0.562c1.037-0.377,1.061-1.219,1.061-2.146
				c-0.024-4.744-0.024-9.488-0.012-14.219c0-1.123-0.061-2.171-1.238-2.83c-0.548-0.293-0.384-0.732,0.189-0.902
				c0.275-0.072,0.549-0.121,0.823-0.121c3.348,0,6.683-0.025,10.03,0c3.183,0.049,5.415,2.267,5.195,5.121
				C40.817,67.463,40.006,68.586,39.031,69.463 M30.842,75.158c0,0.744,0,1.488,0,2.231c0,1.099,0.189,1.281,1.226,1.294
				c0.958,0.012,1.933,0.012,2.884,0c1.908-0.037,3.134-1.343,3.207-3.367c0.073-1.878-1.348-3.658-3.049-3.768
				c-1.11-0.062-2.231-0.024-3.36-0.013c-0.646,0.013-0.945,0.342-0.908,1.013C30.866,73.414,30.842,74.293,30.842,75.158
				 M30.842,66.024c0,0.695-0.061,1.378,0.024,2.073c0.037,0.305,0.274,0.708,0.549,0.842c0.951,0.499,2.921,0.061,3.646-0.744
				c1.012-1.099,1.146-2.562,0.373-3.683c-0.873-1.27-2.793-1.927-4.067-1.33c-0.25,0.109-0.476,0.5-0.5,0.793
				C30.793,64.659,30.842,65.341,30.842,66.024"/>
			<path fill-rule="evenodd" clip-rule="evenodd" fill="#FFFFFF" d="M70.421,81.414c-5.037-0.158-9.33-4.317-9.628-9.427
				c-0.177-2.976,0.433-5.731,2.42-8.012c2.549-2.952,5.842-3.854,9.556-3.012c3.836,0.841,6.141,3.427,7.104,7.158
				c1.414,5.463-1.323,10.926-6.28,12.609C72.58,81.097,71.481,81.194,70.421,81.414 M65.976,70.915
				c0.238,1.5,0.336,2.914,0.708,4.243c0.499,1.865,1.762,2.842,3.427,2.951c1.92,0.11,3.292-0.646,4.055-2.512
				c1.322-3.207,1.249-6.452-0.263-9.573c-0.75-1.561-1.957-2.513-3.792-2.354c-1.774,0.146-2.849,1.231-3.299,2.842
				C66.396,67.976,66.238,69.5,65.976,70.915"/>
			<path fill-rule="evenodd" clip-rule="evenodd" fill="#FFFFFF" d="M49.208,70.866c-1.061-0.769-1.774-1.672-1.726-3.001
				c0.061-1.658,1.036-3.023,2.659-3.268c1.14-0.183,2.378-0.158,3.512,0.073c2.458,0.523,3.372,2.743,2.134,4.963
				C55.5,70.146,55.085,70.586,54.775,71c0.81,1.391,1.621,2.756,2.438,4.146c0.244-0.219,0.574-0.499,0.958-0.828
				c0.488,1.023,0.75,1.914,0,2.938c-0.695,0.964-0.348,1.792,0.835,1.914c0.842,0.086,1.08,0.598,1,1.147
				c-0.061,0.414-0.524,0.914-0.921,1.085c-0.798,0.365-1.598,0.134-2.273-0.427c-0.299-0.256-0.586-0.549-0.951-0.902
				c-1.836,1.354-3.885,2.171-6.245,1.536c-1.255-0.329-2.292-1.072-3.03-2.195C45.195,77.305,45.433,73.598,49.208,70.866
				 M51.78,72.646c-0.402,0.305-0.774,0.523-1.091,0.816c-1.384,1.208-1.494,2.952-0.286,4.195c0.962,1,2.883,0.854,4.012-0.354
				c0.146-0.159,0.299-0.536,0.214-0.683C53.878,75.207,53.274,73.658,51.78,72.646 M52.616,66.635
				c-0.988,0.024-1.738,0.608-1.713,1.365c0.012,0.684,1.091,1.5,1.915,1.463c0.762-0.036,1.598-0.779,1.609-1.438
				C54.427,67.292,53.579,66.635,52.616,66.635"/>
		</g>
	</g>
</g>
<g id="Capa_2" display="none">
	<g display="inline">
		<path fill-rule="evenodd" clip-rule="evenodd" fill="#FFFFFF" d="M49.923,100C21.919,99.829-0.036,77.24,0.013,49.919
			c0.049-27.9,22.857-50.447,50.996-49.91c27.413,0.524,49.6,23.193,48.965,51.178C99.364,77.825,77.702,99.902,49.923,100"/>
		<path fill-rule="evenodd" clip-rule="evenodd" fill="#337335" d="M95.998,50.431c0,1.818,0.012,3.634,0,5.44
			c0,1.366-0.5,1.878-1.848,1.891c-2.501,0-4.995-0.037-7.483,0.024c-0.646,0.012-1.372,0.195-1.908,0.549
			c-11.429,7.416-22.846,14.88-34.25,22.345c-0.646,0.415-1.073,0.415-1.726-0.013c-11.203-7.477-22.43-14.94-33.669-22.369
			c-0.476-0.329-1.134-0.5-1.726-0.512c-2.458-0.062-4.927-0.024-7.391-0.024c-1.384-0.013-1.945-0.549-1.945-1.928
			c-0.012-3.598-0.012-7.183,0-10.775c0-1.287,0.537-1.824,1.811-1.836c2.494-0.012,5.007,0.037,7.489-0.024
			c0.641-0.03,1.366-0.213,1.903-0.567c11.203-7.428,22.394-14.875,33.572-22.339c0.61-0.415,1.012-0.439,1.634-0.03
			c11.38,7.47,22.766,14.904,34.134,22.357c0.677,0.427,1.312,0.616,2.098,0.616c2.464-0.037,4.934-0.024,7.397-0.012
			c1.458,0,1.909,0.445,1.909,1.885C96.01,46.882,95.998,48.663,95.998,50.431 M50.1,56.859h43.647c1.379,0,1.415-0.049,1.415-1.428
			c0-3.402-0.024-6.805,0.013-10.214c0.012-0.896-0.323-1.195-1.214-1.195c-29.248,0.024-58.503,0.012-87.751,0.024
			c-1.11,0-1.238,0.122-1.238,1.238c0,3.342,0,6.683,0,10.025c0,1.537,0,1.55,1.574,1.55H50.1z M49.649,80.155
			c11.337-7.403,22.668-14.795,34.195-22.333H16.339c-0.024,0.049-0.037,0.098-0.061,0.159C27.39,65.36,38.495,72.728,49.649,80.155
			 M83.771,43.168c-0.287-0.22-0.402-0.335-0.524-0.409c-11.002-7.184-21.997-14.362-32.987-21.558
			c-0.537-0.348-0.86-0.213-1.311,0.085C38.245,28.41,27.53,35.515,16.827,42.632c-0.189,0.128-0.354,0.287-0.665,0.537H83.771z"/>
		<path fill-rule="evenodd" clip-rule="evenodd" fill="#337335" d="M69.438,55.018c-1.713,0.268-1.713,0.268-2.262-1.244
			c-0.274-0.806-0.562-1.586-0.848-2.379c-0.013-0.049-0.08-0.085-0.238-0.22v3.879H64.39v-9.299
			c1.701-0.238,1.701-0.238,2.238,1.25c0.299,0.866,0.622,1.708,1.109,2.549v-3.842h1.701V55.018z"/>
		<path fill-rule="evenodd" clip-rule="evenodd" fill="#337335" d="M25.017,45.736c1.634-0.183,1.634-0.183,2.159,1.281
			c0.286,0.805,0.573,1.61,1.073,2.378v-3.696h1.738v9.257c-1.5,0.415-1.665,0.329-2.177-1.061
			c-0.323-0.866-0.646-1.732-1.146-2.562v3.708h-1.646V45.736z"/>
		<path fill-rule="evenodd" clip-rule="evenodd" fill="#337335" d="M82.014,55.005c-1.701,0.256-1.701,0.269-2.085-1.207
			c-0.226-0.806-0.403-1.646-0.665-2.428c-0.085-0.269-0.396-0.451-0.598-0.67c-0.098,0.049-0.189,0.098-0.274,0.159v4.208h-1.635
			v-9.367c1.135,0,2.257-0.128,3.349,0.049c0.536,0.085,1.231,0.646,1.421,1.146c0.384,1.122,0.487,2.317-0.372,3.367
			c-0.165,0.195-0.201,0.609-0.141,0.902C81.313,52.419,81.666,53.676,82.014,55.005 M78.416,49.236
			c0.549-0.171,1.098-0.195,1.396-0.463c0.189-0.171,0.177-0.927-0.024-1.098c-0.311-0.256-0.86-0.244-1.372-0.366V49.236z"/>
		<path fill-rule="evenodd" clip-rule="evenodd" fill="#337335" d="M86.936,45.657c0.854,3.177,1.665,6.262,2.5,9.385
			c-0.963,0.085-1.921,0.39-2.085-0.988c-0.024-0.158-0.348-0.366-0.537-0.378c-0.714-0.049-1.427-0.013-2.11-0.013
			c-0.64,1.622-0.688,1.646-2.201,1.306c0.689-2.928,1.348-5.867,2.062-8.782c0.049-0.219,0.378-0.463,0.604-0.488
			C85.716,45.608,86.276,45.657,86.936,45.657 M86.765,51.895c-0.305-1.122-0.579-2.146-0.842-3.17c-0.061,0-0.122,0-0.183,0.024
			c-0.226,1.024-0.451,2.049-0.689,3.146H86.765z"/>
		<path fill-rule="evenodd" clip-rule="evenodd" fill="#337335" d="M37.019,50.457c0,0.938,0.037,1.877,0,2.804
			c-0.055,1.122-0.726,1.769-1.836,1.854c-0.378,0.024-0.75,0-1.116,0c-1.244-0.049-2.019-0.72-2.062-1.952
			c-0.061-1.829-0.049-3.658,0-5.5c0.031-1.256,0.842-1.964,2.104-2c0.311,0,0.622-0.012,0.933,0c1.25,0.049,1.939,0.744,1.988,2
			c0.012,0.463,0,0.939,0,1.402v1.391H37.019z M35.33,50.334c0-0.708-0.012-1.439,0-2.147c0.012-0.537-0.25-0.805-0.787-0.781
			c-0.549,0-0.774,0.281-0.774,0.817c0.012,1.464,0.024,2.915,0,4.378c0,0.561,0.262,0.78,0.799,0.78
			c0.549,0,0.774-0.269,0.762-0.805C35.317,51.834,35.33,51.09,35.33,50.334"/>
		<path fill-rule="evenodd" clip-rule="evenodd" fill="#337335" d="M56.126,52.176h1.524c0.263,1.365,0,2.207-0.799,2.671
			c-0.726,0.427-2.763,0.438-3.312-0.135c-0.384-0.402-0.75-1.036-0.774-1.585c-0.086-1.817-0.049-3.622-0.024-5.427
			c0.012-1.244,0.799-1.988,2.062-2.043c0.25,0,0.5,0,0.75,0c1.659,0.03,2.36,0.896,2.135,2.653h-1.458
			c-0.152-0.269-0.226-0.61-0.451-0.756c-0.226-0.134-0.641-0.183-0.859-0.061c-0.214,0.11-0.391,0.476-0.403,0.744
			c-0.036,1.305-0.036,2.61-0.012,3.927c0,0.537-0.152,1.195,0.737,1.22C56.065,53.407,56.089,52.847,56.126,52.176"/>
		<path fill-rule="evenodd" clip-rule="evenodd" fill="#337335" d="M58.938,55.054v-9.318h3.507v1.622h-1.684v1.513h1.684v1.78
			c-0.573,0.049-1.122,0.073-1.72,0.11v2.622h1.75v1.671H58.938z"/>
		<path fill-rule="evenodd" clip-rule="evenodd" fill="#337335" d="M45.904,45.663v1.671c-0.299,0.024-0.598,0.049-0.896,0.049
			c-0.951,0.049-1.238,0.512-0.75,1.354c0.384,0.671,0.988,1.232,1.287,1.939c0.348,0.854,0.683,1.83,0.671,2.732
			c-0.012,1.073-0.787,1.622-1.872,1.684c-0.646,0.049-1.299,0-2,0v-1.708c0.391,0,0.726,0,1.049,0
			c0.963-0.024,1.354-0.598,0.939-1.488c-0.287-0.609-0.701-1.17-1.024-1.768c-0.323-0.573-0.677-1.134-0.884-1.744
			c-0.5-1.415,0.372-2.652,1.884-2.72C44.794,45.65,45.307,45.663,45.904,45.663"/>
		<path fill-rule="evenodd" clip-rule="evenodd" fill="#337335" d="M73.964,55.066h-1.763v-7.611
			c-0.536-0.049-0.951-0.073-1.408-0.122v-1.592h4.695v1.592c-0.463,0.024-0.938,0.049-1.524,0.098V55.066z"/>
		<polygon fill-rule="evenodd" clip-rule="evenodd" fill="#337335" points="93.491,55.066 90.131,55.066 90.131,45.73 91.735,45.73 
			91.735,53.358 93.491,53.358 		"/>
		<polygon fill-rule="evenodd" clip-rule="evenodd" fill="#337335" points="16.461,55.042 16.461,45.724 18.095,45.724 
			18.095,53.358 19.858,53.358 19.858,55.042 		"/>
		<path fill-rule="evenodd" clip-rule="evenodd" fill="#337335" d="M13.229,45.724v7.61c0.609,0.037,1.159,0.049,1.756,0.085v1.623
			h-3.434v-9.318H13.229z"/>
		<rect x="38.928" y="45.736" fill-rule="evenodd" clip-rule="evenodd" fill="#337335" width="1.671" height="9.331"/>
		<rect x="21.12" y="45.699" fill-rule="evenodd" clip-rule="evenodd" fill="#337335" width="1.574" height="9.343"/>
		<rect x="7.801" y="45.699" fill-rule="evenodd" clip-rule="evenodd" fill="#337335" width="1.616" height="9.354"/>
		<path fill-rule="evenodd" clip-rule="evenodd" fill="#337335" d="M79.397,59.226c-9.903,6.452-19.819,12.929-29.749,19.405
			c-9.764-6.489-19.497-12.953-29.45-19.552H79.3C79.337,59.128,79.361,59.177,79.397,59.226"/>
		<path fill-rule="evenodd" clip-rule="evenodd" fill="#337335" d="M79.508,41.894h-59.15c0.25-0.214,0.415-0.378,0.598-0.5
			c9.343-6.208,18.698-12.417,28.041-18.637c0.439-0.287,0.762-0.372,1.25-0.061c9.569,6.269,19.162,12.526,28.737,18.771
			C79.123,41.571,79.245,41.68,79.508,41.894"/>
	</g>
</g>
<g id="Capa_3">
	<g>
		<path fill-rule="evenodd" clip-rule="evenodd" fill="#161413" d="M93.579,49.997c0,24.1-19.479,43.615-43.579,43.615
			c-24.124,0-43.603-19.516-43.591-43.615C6.421,25.886,25.925,6.388,50.037,6.4C74.063,6.4,93.579,25.953,93.579,49.997
			 M49.074,72.987c0.012,0.085,0.012,0.158,0.024,0.244c4.181-0.439,8.387-0.707,12.543-1.365
			c5.985-0.927,11.654-2.901,16.725-6.339c3.389-2.292,6.217-5.12,8.095-8.802c1.292-2.584,1.999-5.29,1.694-8.216
			c-0.354-3.291-1.683-6.156-3.657-8.764c-3.182-4.188-7.399-7.003-12.19-9.027c-6.716-2.858-13.811-3.882-21.076-3.998
			c-7.436-0.11-14.762,0.627-21.808,3.212c-5.51,2.023-10.398,4.979-14.042,9.697c-1.975,2.535-3.316,5.345-3.706,8.551
			c-0.5,4.304,0.939,8.058,3.389,11.471c3.084,4.267,7.241,7.168,12.019,9.265C34.08,72,41.492,72.914,49.074,72.987"/>
		<path fill-rule="evenodd" clip-rule="evenodd" fill="#FFFFFF" d="M49.074,72.987c-7.57-0.061-14.994-0.999-22.003-4.071
			c-4.754-2.097-8.923-4.998-11.995-9.265c-2.462-3.413-3.913-7.167-3.401-11.458c0.378-3.218,1.743-6.034,3.694-8.57
			c3.657-4.717,8.557-7.68,14.055-9.685c7.046-2.584,14.36-3.334,21.796-3.224c7.265,0.116,14.359,1.14,21.088,3.999
			c4.791,2.017,9.009,4.839,12.19,9.033c1.975,2.596,3.315,5.473,3.645,8.777c0.317,2.913-0.402,5.632-1.694,8.203
			c-1.865,3.682-4.705,6.51-8.082,8.802c-5.07,3.438-10.739,5.4-16.736,6.339c-4.145,0.646-8.351,0.926-12.532,1.365
			C49.086,73.158,49.074,73.061,49.074,72.987 M50.78,72.036c1.694-0.158,5.06-0.341,8.411-0.743
			c5.278-0.646,10.386-2.048,15.141-4.498c4.229-2.182,7.898-5.022,10.446-9.118c1.828-2.926,2.864-6.083,2.341-9.581
			c-0.366-2.658-1.451-5.028-2.975-7.186c-3.193-4.456-7.558-7.375-12.531-9.447c-5.352-2.237-10.971-3.285-16.736-3.621
			c-7.595-0.463-15.141-0.048-22.503,2.121c-5.851,1.743-11.166,4.456-15.286,9.125c-2.341,2.633-4.011,5.644-4.449,9.203
			c-0.5,4.072,0.938,7.607,3.267,10.825c3.121,4.34,7.399,7.168,12.263,9.203C34.873,71.11,41.918,71.951,50.78,72.036"/>
		<path fill-rule="evenodd" clip-rule="evenodd" fill="#1E1E1C" d="M50.78,72.024c-8.862-0.085-15.908-0.914-22.612-3.706
			c-4.864-2.023-9.143-4.863-12.263-9.203c-2.328-3.218-3.767-6.753-3.267-10.825c0.438-3.56,2.108-6.564,4.449-9.209
			c4.12-4.656,9.435-7.363,15.286-9.112c7.363-2.182,14.908-2.584,22.503-2.133c5.766,0.348,11.385,1.396,16.736,3.621
			c4.974,2.072,9.338,4.992,12.519,9.459c1.536,2.164,2.621,4.522,2.999,7.168c0.512,3.523-0.524,6.667-2.353,9.593
			c-2.548,4.096-6.217,6.948-10.446,9.118c-4.755,2.438-9.862,3.852-15.141,4.51C55.84,71.72,52.487,71.891,50.78,72.024
			 M49.159,71.184c2.804-0.208,5.608-0.317,8.4-0.609c5.448-0.586,10.739-1.854,15.713-4.279c4.498-2.206,8.387-5.144,10.995-9.545
			c1.561-2.657,2.401-5.485,1.926-8.594c-0.402-2.815-1.658-5.266-3.389-7.49c-3.011-3.828-6.924-6.412-11.361-8.289
			c-5.461-2.304-11.215-3.34-17.103-3.645c-8.192-0.433-16.274,0.104-24.075,2.914c-5.156,1.847-9.764,4.577-13.226,8.947
			c-4.632,5.869-4.742,12.123-0.268,18.133c2.901,3.912,6.777,6.582,11.19,8.483C34.714,70.159,41.857,71.037,49.159,71.184"/>
		<path fill-rule="evenodd" clip-rule="evenodd" fill="#FFFFFF" d="M49.159,71.184c-7.302-0.146-14.433-1.024-21.198-3.962
			c-4.413-1.926-8.289-4.584-11.202-8.496c-4.449-6.01-4.352-12.264,0.292-18.133c3.45-4.364,8.045-7.101,13.214-8.959
			c7.801-2.798,15.883-3.334,24.063-2.908c5.899,0.311,11.642,1.347,17.103,3.657c4.437,1.871,8.374,4.456,11.36,8.289
			c1.731,2.219,2.987,4.681,3.413,7.497c0.464,3.096-0.39,5.924-1.95,8.581c-2.596,4.401-6.497,7.339-10.995,9.545
			c-4.961,2.438-10.252,3.693-15.7,4.279C54.767,70.879,51.963,70.976,49.159,71.184 M62.459,53.739
			c-0.378-0.609-0.707-1.183-1.061-1.719c-0.817-1.243-0.817-1.243,0.402-2.023c0.183-0.122,0.365-0.243,0.536-0.39
			c1.194-1.085,0.914-2.731-0.622-3.267c-0.536-0.195-1.158-0.268-1.743-0.28c-1.499-0.037-2.975-0.012-4.474,0
			c-0.536,0-1.072,0-1.499,0c0.549,2.767,0.378,5.449,0.134,8.179h2.219c-0.062-1.109-0.146-2.121-0.146-3.145
			c0-0.171,0.317-0.488,0.512-0.524c0.854-0.11,1.671-0.135,2.085,0.89c0.256,0.646,0.683,1.194,1.048,1.78
			C60.557,54.435,61.105,54.557,62.459,53.739 M36.359,49.266c0.098-0.024,0.183-0.049,0.269-0.085
			c0.451,0.463,0.902,0.914,1.329,1.39c1.048,1.146,2.084,2.304,3.145,3.449c0.341,0.366,0.731,0.586,1.182,0.122
			c0.39-0.414,0.854-0.731,0.488-1.438c-0.244-0.5-0.39-1.109-0.402-1.682c0-1.561,0.098-3.097,0.146-4.645h-1.341v4.547
			c-0.365-0.329-0.634-0.512-0.853-0.756c-0.854-0.987-1.719-1.975-2.548-2.975c-0.902-1.073-2.279-1.414-3.718-0.853
			c0.244,0.268,0.512,0.487,0.707,0.768c0.183,0.256,0.427,0.597,0.415,0.89c-0.098,2.084,0.366,4.205-0.378,6.266h1.682
			C36.042,52.557,36.03,50.924,36.359,49.266 M29.765,55.934c-0.037-0.085-0.073-0.183-0.097-0.28
			c-0.256,0.073-0.524,0.098-0.744,0.207c-0.61,0.28-1.183,0.695-1.804,0.865c-4.669,1.231-8.813-3.218-7.777-7.801
			c0.609-2.73,2.401-4.681,4.852-4.803c0.987-0.055,2,0.329,3.011,0.512c-0.098-0.244-0.208-0.561-0.292-0.78
			c-1.024-0.073-1.951-0.165-2.877-0.201c-0.683-0.024-1.414-0.122-2.036,0.073c-2.633,0.859-4.376,2.688-4.925,5.382
			c-0.512,2.56,0.378,4.791,2.426,6.399c2.657,2.072,5.656,2.219,8.765,1.243C28.802,56.604,29.265,56.214,29.765,55.934
			 M62.909,58.348c0.549,2.097,0.306,4.145,0.159,6.241h1.048c-0.268-1.256-0.329-2.45,0.11-3.646
			c0.572,0.805,0.975,1.622,1.365,2.438c0.402,0.854,0.999,1.023,1.938,0.658c-0.828-1.585,0.013-2.682,0.842-3.779l0.268,0.073
			v4.279h1.731c-0.269-2.158-0.391-4.23,0.085-6.327c-1.853-0.256-1.865-0.243-2.742,1.341c-0.098,0.171-0.159,0.342-0.269,0.488
			c-0.305,0.378-0.609,0.731-0.902,1.097c-0.243-0.414-0.536-0.792-0.731-1.231C64.981,58.092,64.994,58.092,62.909,58.348
			 M32.069,46.779c-0.341-0.256-0.683-0.731-1.036-0.744c-2.097-0.061-4.218-0.024-6.217-0.024c0.561,2.792,0.475,5.473,0.085,8.241
			c0.232,0.023,0.585,0.072,0.951,0.072c1.779,0.013,3.547-0.024,5.327,0.024c0.927,0.024,1.268-0.427,1.426-1.194
			c-1.292,0.134-2.548,0.378-3.803,0.402c-1.365,0.024-1.5-0.207-1.5-1.512c0-0.354,0.012-0.683,0-1.048
			c-0.036-0.634,0.195-0.976,0.915-0.915c0.561,0.049,1.133,0.013,1.755,0.013c-0.451-1.585-1.78-0.39-2.67-1.061
			c0-0.329,0.024-0.817-0.012-1.304c-0.061-0.731,0.244-1,0.975-0.975C29.497,46.804,30.728,46.779,32.069,46.779 M66.871,51.509
			c-0.316,0.694-0.597,1.243-0.816,1.816c-0.073,0.207,0.012,0.487,0.012,0.719c0.22-0.146,0.476-0.268,0.646-0.463
			c0.146-0.146,0.195-0.39,0.28-0.585c0.5-1.122,0.5-1.098,1.609-0.609c0.256,0.098,0.694,0.146,0.902,0
			c0.999-0.769,0.975-0.78,1.621,0.28c0.109,0.183,0.219,0.378,0.329,0.561c0.585,0.976,1.414,1.183,2.548,0.598
			c-1.487-2.658-2.963-5.315-4.571-8.192c-0.585,0.683-1.39,1.304-1.292,1.536c0.487,1.122-0.33,1.841-0.573,2.706
			c-0.183,0.658-0.536,0.829-1.171,0.537c-0.646-0.257-1.206-0.232-1.414,0.536C65.616,51.131,66.188,51.313,66.871,51.509
			 M40.041,42.519c0.902-0.463,0.902-0.463,0.938-1.286c0.049-0.963,0.476-1.749,1.183-2.572c0.256,0.439,0.475,0.725,0.609,1.061
			c0.329,0.737,0.585,1.511,0.938,2.237c0.098,0.231,0.451,0.561,0.61,0.524c0.256-0.067,0.475-0.377,0.609-0.627
			c0.098-0.201,0.012-0.488,0.037-0.738c0.085-0.622,0.085-1.28,0.268-1.871c0.244-0.798,0.658-1.548,0.963-2.334
			c0.061-0.146-0.073-0.359-0.122-0.548c-0.195,0.073-0.451,0.11-0.536,0.238c-0.256,0.463-0.427,0.963-0.67,1.432
			c-0.122,0.256-0.292,0.476-0.561,0.878c-0.39-0.738-0.67-1.274-0.963-1.823c-0.475-0.951-0.768-1.036-1.523-0.725
			c-0.341,1.036-0.622,1.883-0.89,2.725c-0.158,0-0.292-0.019-0.426-0.019c-0.317-0.756-0.646-1.505-0.939-2.279
			c-0.317-0.823-0.987-0.476-1.524-0.463c-0.097,0-0.341,0.451-0.28,0.597C38.493,38.801,39.261,40.66,40.041,42.519 M63.007,36.46
			c0.305,2.011,0.293,4.01,0,6.046h2.012c-0.061-0.798-0.134-1.523-0.134-2.237c0-0.213,0.219-0.561,0.378-0.585
			c0.207-0.037,0.523,0.152,0.658,0.335c0.341,0.524,0.597,1.097,0.877,1.646c0.524,0.975,0.915,1.066,2.012,0.463
			c-0.256-0.573-0.487-1.194-0.816-1.743c-0.329-0.567-0.231-0.89,0.341-1.176c0.609-0.298,1.109-0.737,0.976-1.523
			c-0.146-0.799-0.769-1.17-1.487-1.195C66.177,36.424,64.543,36.46,63.007,36.46 M72.783,39.995
			c0.427,0.652,0.878,1.213,1.207,1.835c0.463,0.847,1.109,0.811,2.048,0.487c-0.414-0.701-0.768-1.334-1.158-1.944
			c-1.036-1.627-1.036-1.615,0.062-3.212c0.122-0.189,0.085-0.476,0.134-0.713c-0.28,0.055-0.634,0-0.816,0.165
			c-0.391,0.335-0.695,0.798-1.036,1.188c-0.293,0.335-0.598,0.646-0.915,0.969c-0.072-0.049-0.134-0.085-0.219-0.122
			c0.085-0.726,0.158-1.463,0.243-2.225h-2.06v6.095h2.219C71.931,41.409,72.003,40.66,72.783,39.995 M83.145,52.996
			c-0.268,0.024-0.463,0.073-0.683,0.098c-0.731,0.146-1.45,0.341-2.206,0.414c-1.73,0.171-2.133-0.22-2.133-1.926
			c0-0.5-0.049-1,0-1.5c0.121-1.328-0.415-2.718,0.536-3.961h-2.572c0.293,2.755,0.354,5.339-0.061,8.083
			c0.243,0.012,0.572,0.061,0.901,0.061c1.549,0.012,3.108-0.036,4.669,0.024C82.535,54.324,82.938,53.898,83.145,52.996
			 M58.838,36.125c-1.975,0.012-3.34,1.512-3.327,3.621c0.012,1.725,1.414,3.035,3.242,3.023c2.036-0.012,3.377-1.451,3.353-3.572
			C62.068,37.35,60.765,36.113,58.838,36.125 M44.746,46.95c0.585-0.049,1.183-0.219,1.731-0.146
			c0.366,0.073,0.927,0.512,0.927,0.768c-0.049,2.206,0.365,4.449-0.256,6.644h2.511c-0.122-0.683-0.317-1.268-0.329-1.828
			c-0.049-1.512,0.024-2.999-0.037-4.511c-0.024-0.841,0.39-1.121,1.122-1.097c0.524,0,1.061,0.122,1.633,0.183
			c-0.499-0.89-0.499-0.865-1.377-0.865c-1.523,0-3.06,0.048-4.571-0.024C45.356,46.036,44.905,46.218,44.746,46.95 M29.106,39.91
			c-0.073,0.049-0.158,0.085-0.244,0.134c-0.658-0.847-1.341-1.67-1.987-2.535c-0.975-1.305-1.231-1.42-2.853-1.048
			c1.39,1.95,0.609,4.071,0.585,6.168h1.036c-0.183-1.298-0.427-2.548,0.073-3.992c1.304,1.548,2.462,2.932,3.621,4.303
			c1.036-0.719,1.048-0.799,0.67-1.743c-0.085-0.201-0.159-0.415-0.159-0.628c0.024-1.347,0.061-2.682,0.11-4.029h-0.854V39.91z
			 M42.491,64.187c0.305,0.098,0.585,0.171,0.816,0.292c1.146,0.537,2.304,0.391,3.316-0.243c0.5-0.317,0.951-0.976,1.085-1.573
			c0.158-0.743-0.378-1.328-1.122-1.633c-0.476-0.207-0.987-0.354-1.475-0.536c-0.536-0.208-1.17-0.476-0.963-1.158
			s0.878-0.731,1.5-0.609c0.524,0.121,1.024,0.341,1.694,0.561c-0.183-0.402-0.244-0.78-0.439-0.914
			c-0.926-0.622-3.023-0.378-3.864,0.401c-0.975,0.902-0.816,2.158,0.378,2.743c0.597,0.28,1.268,0.402,1.816,0.72
			c0.341,0.194,0.536,0.658,0.78,1.023c-0.366,0.244-0.768,0.756-1.122,0.731c-0.719-0.073-1.402-0.427-2.133-0.658
			C42.698,63.528,42.601,63.845,42.491,64.187 M33.751,58.433c-1.231-0.487-2.401-0.585-3.56,0
			c-0.683,0.341-1.097,0.902-1.097,1.707c0,0.779,0.5,1.17,1.134,1.438c0.561,0.243,1.195,0.365,1.719,0.682
			c0.329,0.195,0.768,0.707,0.695,0.927c-0.134,0.354-0.646,0.805-0.951,0.78c-0.756-0.049-1.475-0.378-2.28-0.609
			c-0.048,0.171-0.158,0.512-0.256,0.841c0.341,0.11,0.609,0.183,0.866,0.28c1.182,0.537,2.353,0.366,3.376-0.292
			c0.475-0.317,0.853-0.987,0.963-1.561c0.146-0.731-0.366-1.292-1.048-1.572c-0.512-0.231-1.061-0.378-1.572-0.585
			c-0.537-0.208-1.195-0.524-0.878-1.158c0.183-0.354,0.914-0.561,1.402-0.561c0.524,0,1.036,0.305,1.622,0.512
			C33.824,58.908,33.788,58.652,33.751,58.433 M35.713,39.124c-0.098-1-0.792-0.652-1.28-0.64c-0.609,0.012-0.817-0.226-0.792-0.823
			c0.024-0.537,0-1.036,0.756-0.976c0.658,0.055,1.316,0.08,1.962,0.116l0.037-0.354c-1.523-0.67-3.182-0.098-4.607-0.311v6.516
			c1.572,0,3.181-0.024,4.791,0.012c0.731,0.012,1.122-0.262,1.255-0.933c-0.902,0.061-1.792,0.159-2.682,0.171
			c-1.5,0.03-1.5,0.018-1.5-1.457c0-1.322,0-1.322,1.304-1.322C35.214,39.124,35.445,39.124,35.713,39.124 M55.389,36.363
			c-0.793-0.451-1.012,0.11-1.268,0.548c-1.305,2.176-1.244,2.133-2.646,0.085c-0.646-0.945-1.402-0.957-2.475-0.719
			c0.231,0.372,0.354,0.67,0.549,0.92c1.121,1.426,2.304,2.81,1.926,4.846c-0.135,0.725,0.5,0.609,0.963,0.634
			c0.536,0.037,0.865-0.122,0.768-0.707c-0.207-1.365,0.366-2.475,1.049-3.572C54.657,37.746,55.011,37.063,55.389,36.363
			 M61.239,58.908c-0.402-0.28-0.646-0.622-0.89-0.622c-1.401-0.049-2.779-0.024-4.071-0.024c0.28,2.183,0.231,4.218,0.049,6.327
			c1.377,0,2.804,0.036,4.229-0.037c0.317,0,0.61-0.365,0.915-0.585c-0.939-0.098-1.731-0.073-2.536,0
			c-0.768,0.049-1.048-0.244-1.012-1.023c0.037-1.487,0-1.487,1.451-1.487h0.828c-0.561-1.049-1.572-0.22-2.267-0.78
			c0-0.22,0.036-0.536-0.013-0.829c-0.109-0.829,0.22-1.146,1.036-1.073C59.655,58.871,60.325,58.871,61.239,58.908 M35.177,58.579
			c0.305,0.438,0.548,0.901,0.89,1.268c1.024,1.121,1.524,2.39,1.305,3.925c-0.098,0.658,0.122,0.951,0.841,0.951
			c0.792,0.012,0.78-0.5,0.719-1c-0.219-1.548,0.28-2.852,1.243-4.047c0.292-0.341,0.5-0.756,0.78-1.183
			c-0.975-0.305-1.158,0.476-1.511,0.902c-0.829,1.012-0.915,1.024-1.646-0.061C37.03,58.262,36.64,58.14,35.177,58.579
			 M52.499,64.527c-0.073-0.609-0.183-1.194-0.219-1.804c-0.037-0.805,0.061-1.621-0.024-2.414
			c-0.098-0.975,0.354-1.194,1.316-1.146c0.378,0.024,0.743,0.122,1.17,0.195c-0.402-1.024-0.402-1.012-1.329-1
			c-1.279,0.013-2.547,0.013-3.828,0c-0.926-0.012-0.926-0.049-1.097,0.976c0.463-0.073,0.938-0.22,1.377-0.171
			c0.342,0.073,0.915,0.39,0.927,0.634c0.085,1.561,0.049,3.121,0.049,4.729H52.499z"/>
		<path fill-rule="evenodd" clip-rule="evenodd" fill="#1E1E1C" d="M62.459,53.752c-1.341,0.805-1.902,0.683-2.609-0.512
			c-0.365-0.586-0.78-1.146-1.036-1.768c-0.426-1.037-1.255-1.013-2.097-0.891c-0.207,0.024-0.512,0.329-0.512,0.513
			c0,1.023,0.085,2.048,0.146,3.145h-2.219c0.244-2.73,0.402-5.4-0.146-8.179h1.5c1.499,0,2.998-0.037,4.498,0
			c0.572,0.024,1.183,0.097,1.73,0.28c1.524,0.536,1.829,2.194,0.609,3.267c-0.158,0.146-0.329,0.268-0.523,0.39
			c-1.207,0.78-1.207,0.769-0.391,2.023C61.752,52.581,62.081,53.143,62.459,53.752 M56.169,48.229c0,1.512,0.036,1.572,1.535,1.572
			c0.537,0,1.073-0.048,1.585-0.17c0.707-0.146,1.536-1.195,1.402-1.78c-0.208-0.877-0.866-1.121-1.707-1.061
			c-0.463,0.037-0.938,0-1.414,0C56.169,46.791,56.169,46.791,56.169,48.229"/>
		<path fill-rule="evenodd" clip-rule="evenodd" fill="#1E1E1C" d="M36.359,49.266c-0.329,1.646-0.317,3.279,0.122,4.998h-1.682
			c0.744-2.048,0.28-4.169,0.378-6.266c0.012-0.292-0.232-0.622-0.415-0.902c-0.208-0.269-0.463-0.488-0.707-0.744
			c1.426-0.585,2.816-0.256,3.718,0.841c0.829,1,1.694,2,2.548,2.975c0.219,0.244,0.488,0.438,0.853,0.743v-4.534h1.341
			c-0.049,1.536-0.146,3.096-0.146,4.656c0.012,0.573,0.159,1.158,0.402,1.67c0.366,0.707-0.098,1.024-0.476,1.427
			c-0.451,0.487-0.853,0.256-1.194-0.11c-1.061-1.146-2.097-2.315-3.145-3.462c-0.427-0.463-0.878-0.926-1.316-1.389
			C36.542,49.217,36.445,49.241,36.359,49.266"/>
		<path fill-rule="evenodd" clip-rule="evenodd" fill="#1E1E1C" d="M29.765,55.934c-0.5,0.28-0.963,0.671-1.499,0.816
			c-3.108,0.976-6.107,0.829-8.765-1.243c-2.048-1.621-2.938-3.84-2.426-6.399c0.548-2.694,2.292-4.522,4.925-5.382
			c0.622-0.195,1.353-0.098,2.036-0.073c0.926,0.037,1.853,0.122,2.877,0.201c0.085,0.219,0.195,0.536,0.292,0.78
			c-1.012-0.183-2.024-0.567-2.987-0.512c-2.475,0.122-4.267,2.072-4.876,4.803c-1.036,4.583,3.108,9.033,7.777,7.801
			c0.634-0.17,1.183-0.585,1.804-0.877c0.219-0.098,0.487-0.122,0.731-0.195C29.692,55.751,29.728,55.836,29.765,55.934"/>
		<path fill-rule="evenodd" clip-rule="evenodd" fill="#1E1E1C" d="M62.909,58.335c2.085-0.243,2.072-0.243,2.901,1.634
			c0.195,0.463,0.488,0.841,0.731,1.243c0.305-0.365,0.598-0.731,0.891-1.097c0.109-0.146,0.183-0.329,0.268-0.488
			c0.89-1.584,0.902-1.584,2.768-1.316c-0.476,2.072-0.366,4.145-0.086,6.29h-1.755v-4.267l-0.256-0.085
			c-0.842,1.097-1.67,2.206-0.842,3.791c-0.938,0.354-1.548,0.195-1.938-0.646c-0.378-0.841-0.793-1.657-1.354-2.45
			c-0.463,1.195-0.39,2.39-0.109,3.633H63.08C63.227,62.479,63.446,60.456,62.909,58.335"/>
		<path fill-rule="evenodd" clip-rule="evenodd" fill="#1E1E1C" d="M32.057,46.767c-1.329,0-2.572,0.037-3.791-0.012
			c-0.731-0.024-1.036,0.244-0.975,0.975c0.036,0.475,0.012,0.975,0.012,1.292c0.89,0.683,2.219-0.512,2.658,1.073
			c-0.61,0-1.183,0.024-1.743-0.024c-0.707-0.049-0.951,0.28-0.915,0.927c0.012,0.354,0,0.683,0,1.048
			c0,1.316,0.146,1.536,1.5,1.512c1.268-0.036,2.511-0.269,3.803-0.414c-0.158,0.779-0.512,1.23-1.414,1.206
			c-1.792-0.061-3.56-0.012-5.339-0.036c-0.354,0-0.719-0.049-0.951-0.049c0.378-2.779,0.476-5.449-0.097-8.265
			c2.011,0,4.12-0.024,6.229,0.049C31.386,46.06,31.728,46.511,32.057,46.767"/>
		<path fill-rule="evenodd" clip-rule="evenodd" fill="#1E1E1C" d="M66.884,51.509c-0.695-0.195-1.28-0.378-1.902-0.585
			c0.195-0.744,0.78-0.78,1.414-0.512c0.646,0.292,1,0.121,1.183-0.537c0.231-0.877,1.049-1.584,0.549-2.706
			c-0.098-0.231,0.707-0.877,1.305-1.536c1.608,2.876,3.084,5.534,4.571,8.192c-1.134,0.585-1.951,0.365-2.548-0.598
			c-0.11-0.183-0.208-0.378-0.317-0.561c-0.646-1.073-0.634-1.049-1.646-0.28c-0.195,0.146-0.646,0.098-0.89-0.024
			c-1.109-0.464-1.109-0.488-1.609,0.634c-0.085,0.195-0.134,0.438-0.28,0.585c-0.171,0.195-0.427,0.317-0.646,0.463
			c-0.012-0.243-0.085-0.512-0.012-0.719C66.262,52.752,66.566,52.203,66.884,51.509 M68.725,49.034
			c-0.269,0.671-0.598,1.231-0.658,1.816c-0.037,0.269,0.427,0.658,0.743,0.878c0.146,0.098,0.573-0.037,0.756-0.195
			C70.199,50.875,69.992,50.192,68.725,49.034"/>
		<path fill-rule="evenodd" clip-rule="evenodd" fill="#1E1E1C" d="M40.041,42.519c-0.78-1.871-1.548-3.718-2.28-5.589
			c-0.061-0.152,0.183-0.616,0.28-0.616c0.537,0,1.207-0.347,1.524,0.476c0.268,0.774,0.622,1.523,0.939,2.273
			c0.134,0.012,0.268,0.012,0.426,0.024c0.268-0.847,0.549-1.682,0.89-2.718c0.756-0.33,1.048-0.226,1.536,0.719
			c0.281,0.555,0.561,1.091,0.951,1.823c0.269-0.396,0.439-0.622,0.561-0.872c0.244-0.476,0.415-0.976,0.67-1.433
			c0.085-0.14,0.341-0.165,0.524-0.237c0.061,0.17,0.195,0.396,0.134,0.548c-0.305,0.786-0.719,1.524-0.963,2.322
			c-0.195,0.597-0.195,1.243-0.268,1.883c-0.024,0.238,0.061,0.524-0.037,0.737c-0.122,0.25-0.366,0.561-0.609,0.609
			c-0.159,0.037-0.512-0.274-0.61-0.512c-0.354-0.737-0.609-1.5-0.938-2.243c-0.134-0.329-0.366-0.627-0.609-1.066
			c-0.707,0.841-1.134,1.615-1.183,2.584C40.943,42.056,40.943,42.056,40.041,42.519"/>
		<path fill-rule="evenodd" clip-rule="evenodd" fill="#1E1E1C" d="M62.995,36.466c1.548,0,3.182-0.037,4.827,0.024
			c0.719,0.024,1.341,0.384,1.475,1.195c0.159,0.786-0.341,1.225-0.975,1.523c-0.561,0.287-0.658,0.616-0.329,1.176
			c0.329,0.549,0.561,1.158,0.816,1.743c-1.097,0.604-1.475,0.5-1.987-0.469c-0.305-0.536-0.572-1.115-0.901-1.64
			c-0.122-0.183-0.451-0.372-0.658-0.347c-0.159,0.024-0.378,0.384-0.378,0.597c0,0.713,0.073,1.438,0.134,2.237h-2.012
			C63.3,40.471,63.312,38.472,62.995,36.466 M64.872,37.887c-0.049,0.585-0.098,1.097,0.744,1.048
			c0.828-0.037,1.608-0.549,1.548-1.158c-0.073-0.774-0.683-0.823-1.305-0.866C65.116,36.875,64.689,37.088,64.872,37.887"/>
		<path fill-rule="evenodd" clip-rule="evenodd" fill="#1E1E1C" d="M72.771,39.989c-0.756,0.665-0.841,1.426-0.28,2.523h-2.219
			v-6.089h2.048c-0.073,0.756-0.158,1.493-0.231,2.23c0.073,0.037,0.146,0.073,0.219,0.11c0.317-0.323,0.622-0.634,0.915-0.969
			c0.354-0.39,0.646-0.847,1.036-1.188c0.183-0.158,0.536-0.109,0.816-0.158c-0.036,0.231,0,0.524-0.146,0.707
			c-1.097,1.597-1.097,1.584-0.061,3.212c0.402,0.609,0.756,1.243,1.183,1.957c-0.951,0.323-1.598,0.354-2.048-0.5
			C73.661,41.202,73.21,40.642,72.771,39.989"/>
		<path fill-rule="evenodd" clip-rule="evenodd" fill="#1E1E1C" d="M83.145,52.996c-0.207,0.902-0.609,1.328-1.548,1.292
			c-1.561-0.061-3.12-0.013-4.681-0.024c-0.329,0-0.646-0.049-0.89-0.061c0.427-2.743,0.354-5.352,0.061-8.083h2.572
			c-0.951,1.244-0.415,2.633-0.536,3.961c-0.049,0.5,0,1,0,1.5c0,1.706,0.402,2.097,2.146,1.926
			c0.743-0.073,1.462-0.268,2.206-0.414C82.67,53.069,82.877,53.021,83.145,52.996"/>
		<path fill-rule="evenodd" clip-rule="evenodd" fill="#1E1E1C" d="M58.838,36.131c1.938-0.012,3.23,1.213,3.255,3.072
			c0.037,2.109-1.304,3.56-3.34,3.571c-1.828,0.013-3.23-1.298-3.242-3.035C55.498,37.63,56.863,36.144,58.838,36.131
			 M60.569,39.605c-0.269-0.866-0.439-1.762-0.829-2.548c-0.414-0.841-1.377-0.823-1.914-0.091
			c-0.853,1.164-0.694,3.986,0.269,5.046c0.585,0.634,1.268,0.622,1.67-0.152C60.118,41.178,60.301,40.416,60.569,39.605"/>
		<path fill-rule="evenodd" clip-rule="evenodd" fill="#1E1E1C" d="M44.746,46.95c0.159-0.719,0.61-0.902,1.353-0.877
			c1.524,0.073,3.06,0.024,4.571,0.024c0.878-0.024,0.878-0.024,1.377,0.877c-0.572-0.085-1.109-0.183-1.633-0.195
			c-0.719-0.024-1.146,0.268-1.109,1.109c0.049,1.5-0.024,2.987,0.024,4.474c0.012,0.585,0.195,1.17,0.341,1.853h-2.523
			c0.622-2.194,0.208-4.438,0.256-6.656c0.012-0.244-0.573-0.695-0.927-0.744C45.917,46.73,45.332,46.889,44.746,46.95"/>
		<path fill-rule="evenodd" clip-rule="evenodd" fill="#1E1E1C" d="M29.106,39.91V36.54h0.841c-0.037,1.347-0.073,2.682-0.085,4.029
			c-0.012,0.201,0.061,0.427,0.159,0.628c0.378,0.944,0.354,1.024-0.683,1.749c-1.146-1.377-2.316-2.761-3.621-4.309
			c-0.5,1.451-0.256,2.694-0.073,3.992h-1.048c0.037-2.097,0.817-4.218-0.561-6.162c1.609-0.378,1.865-0.262,2.828,1.048
			c0.646,0.859,1.341,1.682,2.011,2.529C28.96,39.995,29.034,39.959,29.106,39.91"/>
		<path fill-rule="evenodd" clip-rule="evenodd" fill="#1E1E1C" d="M42.491,64.187c0.097-0.342,0.207-0.658,0.268-0.866
			c0.731,0.257,1.414,0.598,2.146,0.671c0.341,0.024,0.744-0.487,1.122-0.743c-0.269-0.354-0.451-0.817-0.792-1.012
			c-0.549-0.317-1.231-0.439-1.804-0.731c-1.207-0.562-1.377-1.841-0.402-2.731c0.866-0.779,2.962-1.023,3.889-0.414
			c0.195,0.146,0.244,0.512,0.415,0.927c-0.67-0.22-1.17-0.439-1.682-0.561c-0.61-0.122-1.292-0.073-1.5,0.609
			s0.427,0.95,0.951,1.146c0.5,0.195,1,0.342,1.487,0.536c0.731,0.317,1.292,0.902,1.122,1.658
			c-0.122,0.585-0.585,1.243-1.085,1.572c-1.012,0.609-2.158,0.769-3.304,0.231C43.064,64.357,42.808,64.284,42.491,64.187"/>
		<path fill-rule="evenodd" clip-rule="evenodd" fill="#1E1E1C" d="M33.751,58.433c0.037,0.22,0.085,0.476,0.134,0.829
			c-0.585-0.195-1.109-0.512-1.622-0.512c-0.488,0-1.219,0.207-1.402,0.561c-0.317,0.634,0.341,0.95,0.878,1.158
			c0.512,0.207,1.048,0.354,1.572,0.585c0.683,0.28,1.195,0.841,1.048,1.572c-0.122,0.585-0.5,1.243-0.963,1.548
			c-1.024,0.671-2.194,0.842-3.376,0.305c-0.256-0.121-0.524-0.17-0.854-0.268c0.098-0.342,0.207-0.683,0.256-0.854
			c0.78,0.231,1.524,0.561,2.268,0.621c0.305,0.025,0.829-0.438,0.951-0.792c0.073-0.22-0.366-0.731-0.695-0.927
			c-0.524-0.305-1.158-0.438-1.719-0.682c-0.634-0.269-1.134-0.659-1.134-1.438c0-0.817,0.415-1.354,1.097-1.707
			C31.35,57.848,32.532,57.945,33.751,58.433"/>
		<path fill-rule="evenodd" clip-rule="evenodd" fill="#1E1E1C" d="M35.713,39.118h-0.756c-1.304,0-1.304,0-1.304,1.323
			c-0.012,1.475,0,1.487,1.5,1.463c0.877-0.012,1.78-0.11,2.669-0.177c-0.122,0.676-0.512,0.951-1.231,0.938
			c-1.622-0.037-3.23-0.012-4.803-0.012v-6.516c1.426,0.213,3.084-0.359,4.607,0.311l-0.037,0.347
			c-0.646-0.037-1.304-0.061-1.962-0.11c-0.756-0.061-0.731,0.439-0.756,0.976c-0.024,0.597,0.183,0.835,0.792,0.823
			C34.921,38.472,35.628,38.118,35.713,39.118"/>
		<path fill-rule="evenodd" clip-rule="evenodd" fill="#1E1E1C" d="M55.4,36.356c-0.39,0.701-0.731,1.384-1.134,2.036
			c-0.694,1.097-1.279,2.206-1.048,3.571c0.085,0.598-0.244,0.762-0.78,0.719c-0.463-0.037-1.098,0.08-0.976-0.634
			c0.391-2.048-0.792-3.419-1.914-4.857c-0.195-0.25-0.33-0.549-0.537-0.92c1.073-0.226,1.804-0.226,2.45,0.725
			c1.402,2.042,1.354,2.084,2.646-0.091C54.377,36.473,54.596,35.906,55.4,36.356"/>
		<path fill-rule="evenodd" clip-rule="evenodd" fill="#1E1E1C" d="M61.239,58.908c-0.914-0.049-1.608-0.049-2.267-0.122
			c-0.829-0.109-1.146,0.231-1.036,1.048c0.036,0.306,0,0.61,0,0.842c0.707,0.561,1.694-0.269,2.267,0.768h-0.828
			c-1.451,0-1.414,0-1.463,1.5c-0.013,0.779,0.256,1.084,1.023,1.012c0.805-0.062,1.597-0.086,2.536,0.023
			c-0.305,0.208-0.598,0.562-0.915,0.586c-1.426,0.061-2.853,0.024-4.229,0.024c0.171-2.109,0.231-4.145-0.049-6.327
			c1.292,0,2.682-0.024,4.06,0.024C60.594,58.299,60.85,58.628,61.239,58.908"/>
		<path fill-rule="evenodd" clip-rule="evenodd" fill="#1E1E1C" d="M35.177,58.566c1.463-0.438,1.853-0.305,2.621,0.769
			c0.731,1.072,0.817,1.072,1.646,0.073c0.365-0.439,0.536-1.22,1.511-0.902c-0.28,0.414-0.488,0.829-0.78,1.17
			c-0.963,1.195-1.475,2.487-1.243,4.047c0.061,0.513,0.073,1-0.707,1c-0.719,0-0.951-0.305-0.853-0.951
			c0.219-1.535-0.281-2.804-1.305-3.925C35.726,59.48,35.482,59.018,35.177,58.566"/>
		<path fill-rule="evenodd" clip-rule="evenodd" fill="#1E1E1C" d="M52.499,64.527h-1.658c0-1.608,0.037-3.169-0.049-4.729
			c-0.012-0.244-0.585-0.561-0.927-0.634c-0.438-0.049-0.914,0.098-1.377,0.171c0.17-1.024,0.17-0.987,1.097-0.976
			c1.28,0.013,2.548,0.013,3.828,0c0.927-0.012,0.927-0.024,1.329,1c-0.427-0.073-0.792-0.171-1.17-0.195
			c-0.963-0.049-1.414,0.171-1.316,1.146c0.085,0.793-0.013,1.609,0.024,2.414C52.316,63.333,52.426,63.918,52.499,64.527"/>
		<path fill-rule="evenodd" clip-rule="evenodd" fill="#FFFFFF" d="M56.169,48.229c0-1.438,0-1.438,1.401-1.438
			c0.476,0,0.951,0.037,1.414,0c0.841-0.061,1.499,0.183,1.707,1.061c0.134,0.585-0.695,1.634-1.402,1.78
			c-0.512,0.122-1.048,0.17-1.585,0.17C56.205,49.802,56.169,49.741,56.169,48.229"/>
		<path fill-rule="evenodd" clip-rule="evenodd" fill="#FFFFFF" d="M68.725,49.034c1.268,1.158,1.475,1.841,0.841,2.499
			c-0.183,0.158-0.609,0.293-0.756,0.195c-0.316-0.22-0.78-0.609-0.743-0.878C68.127,50.266,68.456,49.705,68.725,49.034"/>
		<path fill-rule="evenodd" clip-rule="evenodd" fill="#FFFFFF" d="M64.872,37.887c-0.183-0.799,0.244-1.012,0.987-0.976
			c0.622,0.043,1.231,0.092,1.305,0.866c0.061,0.609-0.72,1.122-1.548,1.158C64.774,38.983,64.823,38.472,64.872,37.887"/>
		<path fill-rule="evenodd" clip-rule="evenodd" fill="#FFFFFF" d="M60.569,39.605c-0.269,0.811-0.451,1.572-0.805,2.255
			c-0.402,0.774-1.085,0.786-1.67,0.152c-0.963-1.061-1.121-3.882-0.269-5.046c0.537-0.731,1.5-0.75,1.914,0.091
			C60.13,37.844,60.301,38.74,60.569,39.605"/>
		<path fill-rule="evenodd" clip-rule="evenodd" fill="#FFFFFF" d="M99.991,50.059C99.942,77.656,77.465,100.037,49.842,100
			C22.219,99.964-0.052,77.498,0.009,49.717C0.058,22.259,22.451-0.012,50,0C77.635,0.013,100.04,22.442,99.991,50.059
			 M93.592,50.059C93.665,26.154,74.197,6.571,50.317,6.394C26.425,6.205,6.823,25.343,6.385,49.156
			C5.934,73.305,25.242,93.442,49.902,93.588C73.832,93.734,93.507,74.121,93.592,50.059"/>
	</g>
</g>
</svg>
